<?xml version="1.0" encoding="UTF-8"?>
<!DOCTYPE svg PUBLIC "-//W3C//DTD SVG 1.1//EN" "http://www.w3.org/Graphics/SVG/1.1/DTD/svg11.dtd">
<svg xmlns="http://www.w3.org/2000/svg" version="1.1" width="524px" height="235px" style="shape-rendering:geometricPrecision; text-rendering:geometricPrecision; image-rendering:optimizeQuality; fill-rule:evenodd; clip-rule:evenodd" xmlns:xlink="http://www.w3.org/1999/xlink">
<g><path style="opacity:0.983" fill="#fcfdfd" d="M -0.5,-0.5 C 8.83333,-0.5 18.1667,-0.5 27.5,-0.5C 18.2146,24.4028 9.21461,49.4028 0.5,74.5C 0.166667,74.5 -0.166667,74.5 -0.5,74.5C -0.5,49.5 -0.5,24.5 -0.5,-0.5 Z"/></g>
<g><path style="opacity:0.995" fill="#26325e" d="M 27.5,-0.5 C 35.5,-0.5 43.5,-0.5 51.5,-0.5C 60.1667,24.5 68.8333,49.5 77.5,74.5C 69.6841,75.4924 61.6841,75.8257 53.5,75.5C 53.0405,72.1226 52.3739,68.7893 51.5,65.5C 43.16,65.3336 34.8267,65.5003 26.5,66C 24.9985,69.0047 23.9985,72.1714 23.5,75.5C 15.6484,75.8254 7.98178,75.492 0.5,74.5C 9.21461,49.4028 18.2146,24.4028 27.5,-0.5 Z"/></g>
<g><path style="opacity:0.994" fill="#fdfdfd" d="M 51.5,-0.5 C 150.5,-0.5 249.5,-0.5 348.5,-0.5C 348.5,25.1667 348.5,50.8333 348.5,76.5C 355.833,76.5 363.167,76.5 370.5,76.5C 370.5,50.8333 370.5,25.1667 370.5,-0.5C 372.5,-0.5 374.5,-0.5 376.5,-0.5C 376.5,4.5 376.5,9.5 376.5,14.5C 383.5,14.5 390.5,14.5 397.5,14.5C 397.5,9.5 397.5,4.5 397.5,-0.5C 439.5,-0.5 481.5,-0.5 523.5,-0.5C 523.5,10.8333 523.5,22.1667 523.5,33.5C 518.482,20.9543 509.149,16.4543 495.5,20C 492.403,21.2734 489.736,23.1067 487.5,25.5C 486.539,23.7354 486.205,21.7354 486.5,19.5C 479.313,19.1755 472.313,19.5088 465.5,20.5C 465.5,38.8333 465.5,57.1667 465.5,75.5C 472.648,76.4916 479.981,76.825 487.5,76.5C 487.5,64.8333 487.5,53.1667 487.5,41.5C 488.522,37.6483 491.022,35.9816 495,36.5C 498.532,35.808 500.865,37.1413 502,40.5C 502.5,52.1619 502.667,63.8286 502.5,75.5C 509.5,75.5 516.5,75.5 523.5,75.5C 523.5,128.5 523.5,181.5 523.5,234.5C 481.5,234.5 439.5,234.5 397.5,234.5C 397.649,233.448 397.483,232.448 397,231.5C 394.926,229.548 392.759,227.715 390.5,226C 376.581,219.933 362.247,214.933 347.5,211C 342.306,209.807 339.14,206.64 338,201.5C 337.039,194.664 337.705,187.997 340,181.5C 343.861,175.112 347.194,168.446 350,161.5C 350.495,159.527 350.662,157.527 350.5,155.5C 356.082,156.979 361.748,157.979 367.5,158.5C 368.191,165.331 366.857,171.664 363.5,177.5C 359.299,178.03 357.299,180.363 357.5,184.5C 362.609,185.077 366.776,183.41 370,179.5C 372.412,172.241 375.578,165.407 379.5,159C 386.274,158.409 392.607,156.409 398.5,153C 403.211,148.62 408.211,144.62 413.5,141C 419.847,140.334 426.014,141.167 432,143.5C 436.626,143.219 438.626,140.885 438,136.5C 432.458,131.289 426.625,126.456 420.5,122C 416.273,121.256 412.106,120.422 408,119.5C 407.951,114.968 407.118,110.634 405.5,106.5C 402.312,108.209 400.645,110.876 400.5,114.5C 401.683,117.828 402.517,121.162 403,124.5C 401.347,128.482 398.347,130.482 394,130.5C 390.228,130.019 386.728,128.852 383.5,127C 374.218,120.719 365.218,114.052 356.5,107C 347.634,101.067 337.967,97.0669 327.5,95C 316.997,93.807 307.33,96.1404 298.5,102C 293.546,105.285 288.88,108.952 284.5,113C 274.466,124.702 263.466,135.368 251.5,145C 241.284,151.641 230.284,153.641 218.5,151C 210.46,146.462 203.126,140.962 196.5,134.5C 195.417,135.365 195.251,136.365 196,137.5C 209.04,162.102 228.873,170.268 255.5,162C 267.014,157.639 277.68,151.805 287.5,144.5C 289.885,148.747 292.885,152.581 296.5,156C 304.533,159.433 312.366,163.267 320,167.5C 320.791,168.745 321.291,170.078 321.5,171.5C 321.41,174.152 322.076,176.485 323.5,178.5C 324.022,191.275 327.022,203.442 332.5,215C 352.8,219.829 372.466,226.329 391.5,234.5C 260.833,234.5 130.167,234.5 -0.5,234.5C -0.5,214.5 -0.5,194.5 -0.5,174.5C 7.52766,174.831 15.5277,174.498 23.5,173.5C 24.3507,170.422 25.3507,167.422 26.5,164.5C 34.9183,164.198 43.2517,164.531 51.5,165.5C 52.5778,168.402 53.2444,171.402 53.5,174.5C 61.8599,174.831 70.1932,174.498 78.5,173.5C 68.6438,148.792 59.6438,123.792 51.5,98.5C 43.2476,98.1842 35.081,98.5175 27,99.5C 17.9024,124.304 8.73577,148.971 -0.5,173.5C -0.5,141.167 -0.5,108.833 -0.5,76.5C 7.68413,76.8257 15.6841,76.4924 23.5,75.5C 23.9985,72.1714 24.9985,69.0047 26.5,66C 34.8267,65.5003 43.16,65.3336 51.5,65.5C 52.3739,68.7893 53.0405,72.1226 53.5,75.5C 61.6758,76.8209 70.0091,76.8209 78.5,75.5C 78.3764,74.8933 78.0431,74.56 77.5,74.5C 68.8333,49.5 60.1667,24.5 51.5,-0.5 Z"/></g>
<g><path style="opacity:0.955" fill="#24315d" d="M 376.5,-0.5 C 383.5,-0.5 390.5,-0.5 397.5,-0.5C 397.5,4.5 397.5,9.5 397.5,14.5C 390.5,14.5 383.5,14.5 376.5,14.5C 376.5,9.5 376.5,4.5 376.5,-0.5 Z"/></g>
<g><path style="opacity:1" fill="#787f93" d="M 348.5,-0.5 C 348.833,-0.5 349.167,-0.5 349.5,-0.5C 349.5,24.8333 349.5,50.1667 349.5,75.5C 356.167,75.5 362.833,75.5 369.5,75.5C 369.5,50.1667 369.5,24.8333 369.5,-0.5C 369.833,-0.5 370.167,-0.5 370.5,-0.5C 370.5,25.1667 370.5,50.8333 370.5,76.5C 363.167,76.5 355.833,76.5 348.5,76.5C 348.5,50.8333 348.5,25.1667 348.5,-0.5 Z"/></g>
<g><path style="opacity:0.991" fill="#232f5c" d="M 349.5,-0.5 C 356.167,-0.5 362.833,-0.5 369.5,-0.5C 369.5,24.8333 369.5,50.1667 369.5,75.5C 362.833,75.5 356.167,75.5 349.5,75.5C 349.5,50.1667 349.5,24.8333 349.5,-0.5 Z"/></g>
<g><path style="opacity:1" fill="#27335f" d="M 205.5,3.5 C 212.833,3.5 220.167,3.5 227.5,3.5C 227.5,9.16667 227.5,14.8333 227.5,20.5C 231.167,20.5 234.833,20.5 238.5,20.5C 238.5,24.8333 238.5,29.1667 238.5,33.5C 234.833,33.5 231.167,33.5 227.5,33.5C 227.334,41.5069 227.5,49.5069 228,57.5C 230.897,60.2309 234.397,61.2309 238.5,60.5C 238.5,65.8333 238.5,71.1667 238.5,76.5C 230.826,76.6664 223.159,76.4997 215.5,76C 209.808,73.7941 206.641,69.6275 206,63.5C 205.5,53.5056 205.334,43.5056 205.5,33.5C 202.5,33.5 199.5,33.5 196.5,33.5C 196.5,29.1667 196.5,24.8333 196.5,20.5C 199.5,20.5 202.5,20.5 205.5,20.5C 205.5,14.8333 205.5,9.16667 205.5,3.5 Z"/></g>
<g><path style="opacity:1" fill="#26325e" d="M 156.5,19.5 C 163.841,19.3337 171.174,19.5003 178.5,20C 188.16,21.4911 193.494,26.9911 194.5,36.5C 188.132,36.8297 181.798,36.4963 175.5,35.5C 172.974,31.2377 169.307,29.7377 164.5,31C 160.192,34.7588 160.859,37.4255 166.5,39C 174.532,39.623 182.199,41.623 189.5,45C 197.459,51.7156 198.625,59.5489 193,68.5C 185.562,75.3686 176.729,78.3686 166.5,77.5C 157.161,77.5775 149.328,74.2442 143,67.5C 140.994,64.4642 140.16,61.1309 140.5,57.5C 147.2,57.17 153.866,57.5033 160.5,58.5C 163.687,64.7042 168.354,66.0376 174.5,62.5C 175.76,60.6471 175.76,58.8138 174.5,57C 167.89,55.1203 161.223,53.4536 154.5,52C 142.25,47.5843 138.75,39.4177 144,27.5C 147.671,23.9227 151.838,21.2561 156.5,19.5 Z"/></g>
<g><path style="opacity:1" fill="#24305d" d="M 271.5,19.5 C 275.833,19.5 280.167,19.5 284.5,19.5C 284.83,25.8682 284.496,32.2015 283.5,38.5C 275.596,35.6321 269.429,37.6321 265,44.5C 263.574,54.7544 263.074,65.0878 263.5,75.5C 256.5,75.5 249.5,75.5 242.5,75.5C 242.5,57.1667 242.5,38.8333 242.5,20.5C 249.167,20.5 255.833,20.5 262.5,20.5C 262.336,23.1873 262.503,25.854 263,28.5C 265.362,24.9734 268.196,21.9734 271.5,19.5 Z"/></g>
<g><path style="opacity:1" fill="#25315d" d="M 307.5,36.5 C 301.167,36.5 294.833,36.5 288.5,36.5C 288.5,35.5 288.5,34.5 288.5,33.5C 290.141,26.1277 294.808,21.6277 302.5,20C 311.167,19.3333 319.833,19.3333 328.5,20C 335.057,20.8937 339.557,24.3937 342,30.5C 342.333,43.5 342.667,56.5 343,69.5C 343.346,71.2182 343.846,72.8849 344.5,74.5C 337.524,75.6644 330.524,75.8311 323.5,75C 322.809,73.9326 322.309,72.7659 322,71.5C 312.317,78.2894 302.15,79.1228 291.5,74C 285.833,68.6811 283.999,62.1811 286,54.5C 288.106,49.8526 291.606,46.686 296.5,45C 304.5,43.3333 312.5,41.6667 320.5,40C 323.462,36.5118 322.795,33.8451 318.5,32C 315.833,31.3333 313.167,31.3333 310.5,32C 308.859,33.129 307.859,34.629 307.5,36.5 Z"/></g>
<g><path style="opacity:1" fill="#25315d" d="M 460.5,74.5 C 453.687,75.4912 446.687,75.8245 439.5,75.5C 439.762,74.0222 439.429,72.6888 438.5,71.5C 428.613,78.2628 418.279,79.0961 407.5,74C 401.939,68.6363 400.105,62.1363 402,54.5C 405.043,49.1232 409.543,45.6232 415.5,44C 422.124,42.7204 428.79,41.7204 435.5,41C 440.174,35.2809 438.674,32.1143 431,31.5C 427.149,31.3305 424.649,32.9972 423.5,36.5C 417.167,36.5 410.833,36.5 404.5,36.5C 404.5,35.5 404.5,34.5 404.5,33.5C 406.762,26.0763 411.762,21.5763 419.5,20C 427.833,19.3333 436.167,19.3333 444.5,20C 450.66,20.8293 455.16,23.996 458,29.5C 458.333,42.8333 458.667,56.1667 459,69.5C 459.352,71.2475 459.852,72.9142 460.5,74.5 Z"/></g>
<g><path style="opacity:1" fill="#ced3da" d="M 465.5,20.5 C 472.313,19.5088 479.313,19.1755 486.5,19.5C 486.205,21.7354 486.539,23.7354 487.5,25.5C 487.44,26.0431 487.107,26.3764 486.5,26.5C 485.534,24.604 485.201,22.604 485.5,20.5C 478.833,20.5 472.167,20.5 465.5,20.5 Z"/></g>
<g><path style="opacity:1" fill="#24305d" d="M 523.5,33.5 C 523.5,47.5 523.5,61.5 523.5,75.5C 516.5,75.5 509.5,75.5 502.5,75.5C 502.667,63.8286 502.5,52.1619 502,40.5C 500.865,37.1413 498.532,35.808 495,36.5C 491.022,35.9816 488.522,37.6483 487.5,41.5C 486.505,52.6544 486.172,63.9877 486.5,75.5C 479.5,75.5 472.5,75.5 465.5,75.5C 465.5,57.1667 465.5,38.8333 465.5,20.5C 472.167,20.5 478.833,20.5 485.5,20.5C 485.201,22.604 485.534,24.604 486.5,26.5C 487.107,26.3764 487.44,26.0431 487.5,25.5C 489.736,23.1067 492.403,21.2734 495.5,20C 509.149,16.4543 518.482,20.9543 523.5,33.5 Z"/></g>
<g><path style="opacity:1" fill="#24315d" d="M 136.5,75.5 C 129.833,75.5 123.167,75.5 116.5,75.5C 116.799,73.396 116.466,71.396 115.5,69.5C 114.893,69.6236 114.56,69.9569 114.5,70.5C 109.689,75.0555 103.856,77.3888 97,77.5C 87.0449,77.2093 81.0449,72.2093 79,62.5C 78.5001,48.504 78.3334,34.504 78.5,20.5C 85.5,20.5 92.5,20.5 99.5,20.5C 99.3335,31.8382 99.5001,43.1716 100,54.5C 101.953,60.5324 105.787,62.0324 111.5,59C 113.041,57.4207 114.208,55.5873 115,53.5C 115.5,42.505 115.667,31.505 115.5,20.5C 122.5,20.5 129.5,20.5 136.5,20.5C 136.5,38.8333 136.5,57.1667 136.5,75.5 Z"/></g>
<g><path style="opacity:1" fill="#25315d" d="M 397.5,20.5 C 397.5,38.8333 397.5,57.1667 397.5,75.5C 390.5,75.5 383.5,75.5 376.5,75.5C 376.5,57.1667 376.5,38.8333 376.5,20.5C 383.5,20.5 390.5,20.5 397.5,20.5 Z"/></g>
<g><path style="opacity:1" fill="#9aa0b2" d="M 397.5,20.5 C 398.497,38.9925 398.83,57.6592 398.5,76.5C 390.981,76.825 383.648,76.4916 376.5,75.5C 383.5,75.5 390.5,75.5 397.5,75.5C 397.5,57.1667 397.5,38.8333 397.5,20.5 Z"/></g>
<g><path style="opacity:1" fill="#eff1f3" d="M 38.5,25.5 C 39.9663,26.347 40.7996,27.6803 41,29.5C 42.8162,35.7769 44.3162,42.1103 45.5,48.5C 41.1667,48.5 36.8333,48.5 32.5,48.5C 34.2011,40.7616 36.2011,33.0949 38.5,25.5 Z"/></g>
<g><path style="opacity:1" fill="#656b88" d="M 288.5,33.5 C 288.5,34.5 288.5,35.5 288.5,36.5C 294.833,36.5 301.167,36.5 307.5,36.5C 301.021,37.4907 294.354,37.824 287.5,37.5C 287.232,35.901 287.566,34.5676 288.5,33.5 Z"/></g>
<g><path style="opacity:1" fill="#6a708c" d="M 404.5,33.5 C 404.5,34.5 404.5,35.5 404.5,36.5C 410.833,36.5 417.167,36.5 423.5,36.5C 417.021,37.4907 410.354,37.824 403.5,37.5C 403.232,35.901 403.566,34.5676 404.5,33.5 Z"/></g>
<g><path style="opacity:1" fill="#a4aaba" d="M 487.5,41.5 C 487.5,53.1667 487.5,64.8333 487.5,76.5C 479.981,76.825 472.648,76.4916 465.5,75.5C 472.5,75.5 479.5,75.5 486.5,75.5C 486.172,63.9877 486.505,52.6544 487.5,41.5 Z"/></g>
<g><path style="opacity:1" fill="#eff0f3" d="M 319.5,51.5 C 320.5,51.5 321.5,51.5 322.5,51.5C 323.263,61.213 318.93,65.3797 309.5,64C 305.208,59.8203 305.874,56.487 311.5,54C 314.379,53.454 317.046,52.6206 319.5,51.5 Z"/></g>
<g><path style="opacity:1" fill="#f2f3f5" d="M 435.5,51.5 C 436.5,51.5 437.5,51.5 438.5,51.5C 439.397,63.1142 434.564,66.7808 424,62.5C 423.333,60.5 423.333,58.5 424,56.5C 427.773,54.5264 431.607,52.8598 435.5,51.5 Z"/></g>
<g><path style="opacity:1" fill="#8a90a1" d="M -0.5,74.5 C -0.166667,74.5 0.166667,74.5 0.5,74.5C 7.98178,75.492 15.6484,75.8254 23.5,75.5C 15.6841,76.4924 7.68413,76.8257 -0.5,76.5C -0.5,75.8333 -0.5,75.1667 -0.5,74.5 Z"/></g>
<g><path style="opacity:1" fill="#8b91a2" d="M 77.5,74.5 C 78.0431,74.56 78.3764,74.8933 78.5,75.5C 70.0091,76.8209 61.6758,76.8209 53.5,75.5C 61.6841,75.8257 69.6841,75.4924 77.5,74.5 Z"/></g>
<g><path style="opacity:1" fill="#8b92a1" d="M 114.5,70.5 C 114.56,69.9569 114.893,69.6236 115.5,69.5C 116.466,71.396 116.799,73.396 116.5,75.5C 123.167,75.5 129.833,75.5 136.5,75.5C 129.687,76.4912 122.687,76.8245 115.5,76.5C 115.795,74.2646 115.461,72.2646 114.5,70.5 Z"/></g>
<g><path style="opacity:1" fill="#8b92a1" d="M 460.5,74.5 C 461.043,74.56 461.376,74.8933 461.5,75.5C 454.01,76.8194 446.677,76.8194 439.5,75.5C 446.687,75.8245 453.687,75.4912 460.5,74.5 Z"/></g>
<g><path style="opacity:1" fill="#e2092e" d="M 397.5,234.5 C 395.5,234.5 393.5,234.5 391.5,234.5C 372.466,226.329 352.8,219.829 332.5,215C 327.022,203.442 324.022,191.275 323.5,178.5C 323.59,175.848 322.924,173.515 321.5,171.5C 321.291,170.078 320.791,168.745 320,167.5C 312.366,163.267 304.533,159.433 296.5,156C 292.885,152.581 289.885,148.747 287.5,144.5C 277.68,151.805 267.014,157.639 255.5,162C 228.873,170.268 209.04,162.102 196,137.5C 195.251,136.365 195.417,135.365 196.5,134.5C 203.126,140.962 210.46,146.462 218.5,151C 230.284,153.641 241.284,151.641 251.5,145C 263.466,135.368 274.466,124.702 284.5,113C 288.88,108.952 293.546,105.285 298.5,102C 307.33,96.1404 316.997,93.807 327.5,95C 337.967,97.0669 347.634,101.067 356.5,107C 365.218,114.052 374.218,120.719 383.5,127C 386.728,128.852 390.228,130.019 394,130.5C 398.347,130.482 401.347,128.482 403,124.5C 402.517,121.162 401.683,117.828 400.5,114.5C 400.645,110.876 402.312,108.209 405.5,106.5C 407.118,110.634 407.951,114.968 408,119.5C 412.106,120.422 416.273,121.256 420.5,122C 426.625,126.456 432.458,131.289 438,136.5C 438.626,140.885 436.626,143.219 432,143.5C 426.014,141.167 419.847,140.334 413.5,141C 408.211,144.62 403.211,148.62 398.5,153C 392.607,156.409 386.274,158.409 379.5,159C 375.578,165.407 372.412,172.241 370,179.5C 366.776,183.41 362.609,185.077 357.5,184.5C 357.299,180.363 359.299,178.03 363.5,177.5C 366.857,171.664 368.191,165.331 367.5,158.5C 361.748,157.979 356.082,156.979 350.5,155.5C 350.662,157.527 350.495,159.527 350,161.5C 347.194,168.446 343.861,175.112 340,181.5C 337.705,187.997 337.039,194.664 338,201.5C 339.14,206.64 342.306,209.807 347.5,211C 362.247,214.933 376.581,219.933 390.5,226C 392.759,227.715 394.926,229.548 397,231.5C 397.483,232.448 397.649,233.448 397.5,234.5 Z"/></g>
<g><path style="opacity:1" fill="#25315d" d="M 51.5,165.5 C 47.7238,164.175 43.5572,163.509 39,163.5C 34.6528,163.501 30.4861,163.834 26.5,164.5C 25.3507,167.422 24.3507,170.422 23.5,173.5C 15.5277,174.498 7.52766,174.831 -0.5,174.5C -0.5,174.167 -0.5,173.833 -0.5,173.5C 8.73577,148.971 17.9024,124.304 27,99.5C 35.081,98.5175 43.2476,98.1842 51.5,98.5C 59.6438,123.792 68.6438,148.792 78.5,173.5C 70.1932,174.498 61.8599,174.831 53.5,174.5C 53.2444,171.402 52.5778,168.402 51.5,165.5 Z"/></g>
<g><path style="opacity:1" fill="#232f5c" d="M 101.5,98.5 C 101.5,103.167 101.5,107.833 101.5,112.5C 94.8333,112.5 88.1667,112.5 81.5,112.5C 81.5,107.833 81.5,103.167 81.5,98.5C 88.1667,98.5 94.8333,98.5 101.5,98.5 Z"/></g>
<g><path style="opacity:1" fill="#25315e" d="M 147.5,98.5 C 154.5,98.5 161.5,98.5 168.5,98.5C 168.5,123.833 168.5,149.167 168.5,174.5C 161.5,174.5 154.5,174.5 147.5,174.5C 148.187,168.401 146.854,167.901 143.5,173C 125.704,179.519 114.204,173.686 109,155.5C 108.104,147.754 108.437,140.087 110,132.5C 118.573,116.249 130.407,113.249 145.5,123.5C 145.56,124.043 145.893,124.376 146.5,124.5C 147.498,115.859 147.831,107.192 147.5,98.5 Z"/></g>
<g><path style="opacity:1" fill="#8e96a2" d="M 147.5,98.5 C 147.831,107.192 147.498,115.859 146.5,124.5C 145.893,124.376 145.56,124.043 145.5,123.5C 146.167,115.167 146.833,106.833 147.5,98.5 Z"/></g>
<g><path style="opacity:1" fill="#575f7a" d="M 101.5,98.5 C 102.487,103.305 102.821,108.305 102.5,113.5C 95.3134,113.825 88.3134,113.491 81.5,112.5C 88.1667,112.5 94.8333,112.5 101.5,112.5C 101.5,107.833 101.5,103.167 101.5,98.5 Z"/></g>
<g><path style="opacity:1" fill="#25315d" d="M 81.5,119.5 C 88.5,119.5 95.5,119.5 102.5,119.5C 102.5,137.833 102.5,156.167 102.5,174.5C 95.5,174.5 88.5,174.5 81.5,174.5C 81.5,156.167 81.5,137.833 81.5,119.5 Z"/></g>
<g><path style="opacity:1" fill="#eff0f3" d="M 38.5,124.5 C 39.9663,125.347 40.7996,126.68 41,128.5C 42.9779,134.744 44.4779,141.077 45.5,147.5C 41.1667,147.5 36.8333,147.5 32.5,147.5C 34.2039,139.758 36.2039,132.091 38.5,124.5 Z"/></g>
<g><path style="opacity:1" fill="#f9f9fa" d="M 134.5,133.5 C 140.392,132.073 144.559,134.073 147,139.5C 147.667,144.5 147.667,149.5 147,154.5C 144.549,160.089 140.383,161.922 134.5,160C 132.19,158.363 130.69,156.196 130,153.5C 129.333,148.833 129.333,144.167 130,139.5C 131.332,137.34 132.832,135.34 134.5,133.5 Z"/></g>
<g><path style="opacity:1" fill="#a6aeb8" d="M 26.5,164.5 C 30.4861,163.834 34.6528,163.501 39,163.5C 43.5572,163.509 47.7238,164.175 51.5,165.5C 43.2517,164.531 34.9183,164.198 26.5,164.5 Z"/></g>
<g><path style="opacity:1" fill="#eeadbb" d="M 321.5,171.5 C 322.924,173.515 323.59,175.848 323.5,178.5C 322.076,176.485 321.41,174.152 321.5,171.5 Z"/></g>
</svg>
