<?xml version="1.0" encoding="UTF-8"?>
<!DOCTYPE svg PUBLIC "-//W3C//DTD SVG 1.1//EN" "http://www.w3.org/Graphics/SVG/1.1/DTD/svg11.dtd">
<svg xmlns="http://www.w3.org/2000/svg" version="1.1" width="568px" height="623px" style="shape-rendering:geometricPrecision; text-rendering:geometricPrecision; image-rendering:optimizeQuality; fill-rule:evenodd; clip-rule:evenodd" xmlns:xlink="http://www.w3.org/1999/xlink">
<g><path style="opacity:0.978" fill="#36415b" d="M 567.5,206.5 C 567.5,211.833 567.5,217.167 567.5,222.5C 533.901,125.231 468.235,60.0645 370.5,27C 277.932,0.934591 191.932,14.6013 112.5,68C 58.4631,107.191 20.7965,158.358 -0.5,221.5C -0.5,216.167 -0.5,210.833 -0.5,205.5C 34.272,118.228 95.6053,58.0611 183.5,25C 284.539,-6.81058 378.205,7.52275 464.5,68C 505.8,99.9987 537.633,139.832 560,187.5C 562.619,193.871 565.119,200.204 567.5,206.5 Z"/></g>
<g><path style="opacity:1" fill="#fcfcfd" d="M 567.5,222.5 C 567.5,279.167 567.5,335.833 567.5,392.5C 548.453,381.31 529.12,370.643 509.5,360.5C 525.016,269.197 498.016,193.364 428.5,133C 364.055,84.2555 292.722,70.5889 214.5,92C 131.713,120.785 79.5462,177.618 58,262.5C 52.1804,295.141 52.0137,327.807 57.5,360.5C 37.5237,370.152 18.1904,380.818 -0.5,392.5C -0.5,335.5 -0.5,278.5 -0.5,221.5C 20.7965,158.358 58.4631,107.191 112.5,68C 191.932,14.6013 277.932,0.934591 370.5,27C 468.235,60.0645 533.901,125.231 567.5,222.5 Z"/></g>
<g><path style="opacity:1" fill="#475068" d="M 228.5,39.5 C 231.665,38.9635 234.331,39.7969 236.5,42C 234.765,42.6514 233.098,42.4847 231.5,41.5C 230.485,44.1677 228.818,44.8344 226.5,43.5C 227.63,42.3777 228.297,41.0443 228.5,39.5 Z"/></g>
<g><path style="opacity:1" fill="#3e4861" d="M 268.5,40.5 C 269.833,40.5 271.167,40.5 272.5,40.5C 273.248,47.8088 273.582,55.1422 273.5,62.5C 272.448,62.6495 271.448,62.4828 270.5,62C 266.667,58.1667 262.833,54.3333 259,50.5C 258.501,54.8206 258.334,59.1539 258.5,63.5C 257.167,63.5 255.833,63.5 254.5,63.5C 253.962,56.1781 253.629,48.8447 253.5,41.5C 254.552,41.3505 255.552,41.5172 256.5,42C 260.667,46.1667 264.833,50.3333 269,54.5C 269.461,49.8159 269.295,45.1493 268.5,40.5 Z"/></g>
<g><path style="opacity:1" fill="#3f4862" d="M 290.5,40.5 C 294.182,40.3347 297.848,40.5014 301.5,41C 302.687,42.0195 303.687,43.1861 304.5,44.5C 304.167,45.5 303.5,46.1667 302.5,46.5C 295.354,41.4567 290.688,43.1234 288.5,51.5C 288.622,53.7912 289.455,55.7912 291,57.5C 295.119,58.6586 299.286,58.6586 303.5,57.5C 303.67,58.8221 303.337,59.9887 302.5,61C 289.7,64.5313 283.866,59.698 285,46.5C 287.04,44.6298 288.873,42.6298 290.5,40.5 Z"/></g>
<g><path style="opacity:1" fill="#3f4962" d="M 316.5,42.5 C 317.833,42.5 319.167,42.5 320.5,42.5C 319.176,49.7672 318.51,57.1005 318.5,64.5C 316.833,64.5 315.167,64.5 313.5,64.5C 314.664,57.1898 315.664,49.8564 316.5,42.5 Z"/></g>
<g><path style="opacity:1" fill="#404a63" d="M 237.5,43.5 C 238.5,43.5 239.5,43.5 240.5,43.5C 240.5,44.8333 240.5,46.1667 240.5,47.5C 236.821,47.7244 233.154,48.0578 229.5,48.5C 229.5,50.5 229.5,52.5 229.5,54.5C 232.91,54.2181 236.243,53.5514 239.5,52.5C 240.429,53.6888 240.762,55.0222 240.5,56.5C 234.45,55.3247 231.45,57.658 231.5,63.5C 235.833,62.8333 240.167,62.1667 244.5,61.5C 244.5,62.8333 244.5,64.1667 244.5,65.5C 239.149,66.0369 233.816,66.7035 228.5,67.5C 227.361,60.9706 226.027,54.4706 224.5,48C 224.905,47.0546 225.572,46.3879 226.5,46C 230.347,45.3666 234.014,44.5333 237.5,43.5 Z"/></g>
<g><path style="opacity:1" fill="#404963" d="M 340.5,46.5 C 341.93,46.4208 343.264,46.7542 344.5,47.5C 346.551,55.0901 348.218,62.7567 349.5,70.5C 348.167,70.5 346.833,70.5 345.5,70.5C 345.55,67.8023 344.55,65.6356 342.5,64C 339.812,63.6076 337.145,63.1076 334.5,62.5C 332.864,64.1054 331.031,65.4387 329,66.5C 328.167,66.1667 327.333,65.8333 326.5,65.5C 331.191,59.1483 335.858,52.815 340.5,46.5 Z"/></g>
<g><path style="opacity:1" fill="#3e4861" d="M 203.5,51.5 C 213.616,51.4308 216.616,55.9308 212.5,65C 214.208,67.0435 216.208,68.7101 218.5,70C 217.391,70.6377 216.225,71.1377 215,71.5C 213.177,70.3488 211.344,69.1821 209.5,68C 207.833,67.3333 206.167,67.3333 204.5,68C 203.864,70.3938 203.864,72.8938 204.5,75.5C 203.167,75.5 201.833,75.5 200.5,75.5C 198.762,69.3831 197.095,63.2164 195.5,57C 195.833,56.1667 196.167,55.3333 196.5,54.5C 199.016,53.6701 201.35,52.6701 203.5,51.5 Z"/></g>
<g><path style="opacity:1" fill="#e6e8eb" d="M 340.5,51.5 C 342.851,53.8413 343.851,56.8413 343.5,60.5C 340.843,60.838 338.51,60.1713 336.5,58.5C 338.11,56.2746 339.443,53.9413 340.5,51.5 Z"/></g>
<g><path style="opacity:1" fill="#f0f1f3" d="M 202.5,55.5 C 204.527,55.3379 206.527,55.5045 208.5,56C 211.167,58.3333 211.167,60.6667 208.5,63C 206.541,63.9309 204.541,64.7643 202.5,65.5C 201.574,62.956 200.574,60.456 199.5,58C 200.571,57.1482 201.571,56.3149 202.5,55.5 Z"/></g>
<g><path style="opacity:1" fill="#414b64" d="M 378.5,58.5 C 384.029,59.9294 389.363,61.9294 394.5,64.5C 394,65.8805 393,66.5472 391.5,66.5C 388.71,65.4032 385.877,64.4032 383,63.5C 381.558,64.2125 380.725,65.3791 380.5,67C 382.684,69.2611 385.35,70.7611 388.5,71.5C 389.7,73.107 389.2,74.107 387,74.5C 384.468,73.8811 382.135,72.8811 380,71.5C 375.977,73.6252 375.81,75.7919 379.5,78C 382.096,79.1356 384.763,79.969 387.5,80.5C 387.778,82.3464 387.111,83.6798 385.5,84.5C 380.414,82.6492 375.748,80.1492 371.5,77C 374.27,70.9667 376.603,64.8 378.5,58.5 Z"/></g>
<g><path style="opacity:1" fill="#404a63" d="M 172.5,63.5 C 173.873,63.3433 175.207,63.51 176.5,64C 182.009,68.677 187.342,73.5103 192.5,78.5C 191.672,79.4147 190.672,80.0814 189.5,80.5C 185.36,76.9145 181.027,76.9145 176.5,80.5C 175.526,82.7427 175.192,85.076 175.5,87.5C 174.178,87.33 173.011,87.6634 172,88.5C 171.199,80.0881 171.366,71.7548 172.5,63.5 Z"/></g>
<g><path style="opacity:1" fill="#f2f2f4" d="M 175.5,68.5 C 177.812,70.1455 179.812,72.1455 181.5,74.5C 179.821,75.782 177.987,76.782 176,77.5C 175.502,74.5184 175.335,71.5184 175.5,68.5 Z"/></g>
<g><path style="opacity:1" fill="#3d4761" d="M 149.5,75.5 C 158.556,75.0429 161.723,79.0429 159,87.5C 157.019,89.6575 154.686,91.3241 152,92.5C 152.222,94.4564 153.055,96.2897 154.5,98C 152.522,100.015 150.688,99.8483 149,97.5C 146.032,92.3976 143.199,87.231 140.5,82C 143.537,79.8216 146.537,77.6549 149.5,75.5 Z"/></g>
<g><path style="opacity:1" fill="#f2f3f4" d="M 149.5,79.5 C 156.004,79.1377 157.671,81.6377 154.5,87C 152.99,87.8498 151.49,88.6831 150,89.5C 148.14,87.625 146.64,85.4583 145.5,83C 146.731,81.5952 148.064,80.4286 149.5,79.5 Z"/></g>
<g><path style="opacity:1" fill="#3e4861" d="M 418.5,80.5 C 425.928,79.8784 431.261,82.8784 434.5,89.5C 433.833,89.8333 433.167,90.1667 432.5,90.5C 430.71,89.2137 429.043,87.7137 427.5,86C 418.894,83.2678 415.061,86.4345 416,95.5C 420.28,101.164 423.946,100.831 427,94.5C 428.158,94.9981 428.991,95.8315 429.5,97C 426.661,104.002 421.994,105.336 415.5,101C 409.335,92.947 410.335,86.1136 418.5,80.5 Z"/></g>
<g><path style="opacity:1" fill="#303b56" d="M 509.5,360.5 C 375.94,301.046 239.94,294.879 101.5,342C 86.6822,347.881 72.0155,354.048 57.5,360.5C 52.0137,327.807 52.1804,295.141 58,262.5C 79.5462,177.618 131.713,120.785 214.5,92C 292.722,70.5889 364.055,84.2555 428.5,133C 498.016,193.364 525.016,269.197 509.5,360.5 Z"/></g>
<g><path style="opacity:1" fill="#414a63" d="M 126.5,90.5 C 127.833,90.5 129.167,90.5 130.5,90.5C 130.5,91.5 130.5,92.5 130.5,93.5C 128.217,93.6079 126.217,94.4412 124.5,96C 121.628,98.5321 121.961,100.365 125.5,101.5C 129.301,99.5059 133.301,98.6725 137.5,99C 141.67,103.855 141.003,108.188 135.5,112C 133.278,112.695 131.111,113.528 129,114.5C 126.98,113.968 126.147,112.635 126.5,110.5C 131.107,110.811 134.441,108.977 136.5,105C 136.333,103.5 135.5,102.667 134,102.5C 130.864,103.654 127.698,104.654 124.5,105.5C 119.957,104.759 118.124,102.092 119,97.5C 120.742,94.2543 123.242,91.921 126.5,90.5 Z"/></g>
<g><path style="opacity:1" fill="#404a63" d="M 445.5,95.5 C 449.617,98.0684 453.617,100.902 457.5,104C 458.337,105.011 458.67,106.178 458.5,107.5C 457.448,107.649 456.448,107.483 455.5,107C 452.989,105.152 450.489,103.319 448,101.5C 445.749,102.063 444.749,103.397 445,105.5C 447.22,108.021 449.72,110.188 452.5,112C 451.407,113.365 450.074,113.699 448.5,113C 446.679,111.257 444.679,109.757 442.5,108.5C 440.054,109.427 439.221,111.094 440,113.5C 442.827,115.494 445.327,117.828 447.5,120.5C 447.167,121.5 446.5,122.167 445.5,122.5C 442.346,119.757 439.012,117.257 435.5,115C 433.789,113.867 433.289,112.367 434,110.5C 438.456,105.89 442.29,100.89 445.5,95.5 Z"/></g>
<g><path style="opacity:1" fill="#3e4861" d="M 105.5,106.5 C 110.96,111.128 115.96,116.295 120.5,122C 120.355,122.772 120.022,123.439 119.5,124C 113.911,124.601 108.411,124.101 103,122.5C 102.5,122.833 102,123.167 101.5,123.5C 104.368,126.532 107.035,129.698 109.5,133C 108.991,134.169 108.158,135.002 107,135.5C 101.8,130.635 96.9666,125.468 92.5,120C 94.116,118.923 95.9493,118.423 98,118.5C 102.82,119.366 107.653,119.533 112.5,119C 109.613,116.113 106.779,113.279 104,110.5C 103.7,108.934 104.2,107.601 105.5,106.5 Z"/></g>
<g><path style="opacity:1" fill="#424b64" d="M 464.5,116.5 C 470.072,115.571 474.238,117.571 477,122.5C 477.49,123.793 477.657,125.127 477.5,126.5C 474.452,124.967 471.785,122.8 469.5,120C 467.393,119.146 466.059,119.812 465.5,122C 467.444,125.222 469.111,128.555 470.5,132C 469.311,137.928 465.977,139.595 460.5,137C 457.202,134.536 454.868,131.37 453.5,127.5C 454.32,125.889 455.654,125.222 457.5,125.5C 457.738,129.138 459.404,131.971 462.5,134C 465.667,134.833 466.833,133.667 466,130.5C 463.97,127.774 462.47,124.774 461.5,121.5C 461.757,119.308 462.757,117.641 464.5,116.5 Z"/></g>
<g><path style="opacity:1" fill="#f9f9fa" d="M 279.5,118.5 C 292.368,118.037 300.368,124.037 303.5,136.5C 344.762,150.838 361.762,179.671 354.5,223C 362.42,231.58 363.586,241.08 358,251.5C 351.561,258.171 344.061,260.171 335.5,257.5C 309.591,281.366 280.591,285.866 248.5,271C 242.388,267.381 236.721,263.214 231.5,258.5C 215.46,262.116 206.794,255.783 205.5,239.5C 205.667,237.5 205.833,235.5 206,233.5C 208.006,230.008 210.172,226.674 212.5,223.5C 205.344,185.65 218.678,157.816 252.5,140C 256.09,138.47 259.757,137.136 263.5,136C 265.772,127.238 271.105,121.404 279.5,118.5 Z"/></g>
<g><path style="opacity:1" fill="#35405a" d="M 279.5,127.5 C 289.387,127.217 293.887,131.884 293,141.5C 292.654,143.848 291.487,145.681 289.5,147C 278.801,150.635 273.301,146.801 273,135.5C 274.305,132.039 276.471,129.372 279.5,127.5 Z"/></g>
<g><path style="opacity:1" fill="#3f4962" d="M 484.5,132.5 C 486.371,132.859 487.871,133.859 489,135.5C 491.833,139 494.667,142.5 497.5,146C 496.892,146.87 496.059,147.37 495,147.5C 493.726,146.465 492.56,145.298 491.5,144C 490.5,143.333 489.5,143.333 488.5,144C 484.333,147.5 480.167,151 476,154.5C 474.322,153.534 473.655,152.201 474,150.5C 478,147.167 482,143.833 486,140.5C 486.667,139.5 486.667,138.5 486,137.5C 483.676,136.225 483.176,134.558 484.5,132.5 Z"/></g>
<g><path style="opacity:1" fill="#3d4760" d="M 77.5,135.5 C 85.3701,137.235 93.0368,139.568 100.5,142.5C 98.7481,144.806 96.5815,145.14 94,143.5C 91.6884,145.812 89.3551,148.145 87,150.5C 86.4712,152.585 86.9712,154.418 88.5,156C 88.0696,157.434 87.2362,158.601 86,159.5C 83,153.167 80,146.833 77,140.5C 76.3603,138.735 76.5269,137.068 77.5,135.5 Z"/></g>
<g><path style="opacity:1" fill="#e8eaed" d="M 80.5,139.5 C 83.5156,140.562 86.5156,141.729 89.5,143C 87.6411,144.558 86.1411,146.391 85,148.5C 83.2389,145.589 81.7389,142.589 80.5,139.5 Z"/></g>
<g><path style="opacity:1" fill="#434c65" d="M 507.5,154.5 C 511.8,154.815 513.467,157.149 512.5,161.5C 513.675,161.281 514.675,161.614 515.5,162.5C 511.072,164.052 509.405,162.386 510.5,157.5C 507.506,157.854 506.506,156.854 507.5,154.5 Z"/></g>
<g><path style="opacity:1" fill="#3f4962" d="M 63.5,156.5 C 70.0628,156.067 73.3962,159.067 73.5,165.5C 76.2469,165.187 78.9135,165.52 81.5,166.5C 81.1667,167.167 80.8333,167.833 80.5,168.5C 77.2959,169.204 74.1292,169.87 71,170.5C 70.5,171.5 70,172.5 69.5,173.5C 70.6709,175.169 72.0042,176.669 73.5,178C 73.3865,179.28 72.7199,180.113 71.5,180.5C 66.5,177.333 61.5,174.167 56.5,171C 54.7888,169.867 54.2888,168.367 55,166.5C 57.1503,162.497 59.9837,159.164 63.5,156.5 Z"/></g>
<g><path style="opacity:1" fill="#404a63" d="M 503.5,159.5 C 507.648,159.453 509.148,161.453 508,165.5C 504.362,171.303 500.529,176.97 496.5,182.5C 495.28,182.113 494.613,181.28 494.5,180C 495.167,178.333 495.833,176.667 496.5,175C 495.722,172.61 494.555,170.443 493,168.5C 489.706,167.258 486.539,165.758 483.5,164C 490.276,162.378 496.943,160.878 503.5,159.5 Z"/></g>
<g><path style="opacity:1" fill="#f0f1f3" d="M 63.5,160.5 C 69.5273,161.004 71.0273,164.004 68,169.5C 67.3109,170.357 66.4776,171.023 65.5,171.5C 63.0562,170.552 61.0562,169.052 59.5,167C 60.7125,164.738 62.0459,162.571 63.5,160.5 Z"/></g>
<g><path style="opacity:1" fill="#eaebee" d="M 495.5,164.5 C 504.63,163.353 505.797,165.686 499,171.5C 497.121,169.473 495.954,167.14 495.5,164.5 Z"/></g>
<g><path style="opacity:1" fill="#323d58" d="M 249.5,157.5 C 256.982,156.955 263.982,158.455 270.5,162C 254.132,175.535 243.798,192.701 239.5,213.5C 239.833,214.5 240.167,215.5 240.5,216.5C 243.751,218.375 246.918,220.375 250,222.5C 255.26,189.92 273.426,168.42 304.5,158C 311.543,156.719 318.21,157.719 324.5,161C 332.691,167.883 338.525,176.383 342,186.5C 344.469,199.058 340.636,209.225 330.5,217C 329.552,217.483 328.552,217.649 327.5,217.5C 324.883,196.434 315.55,178.934 299.5,165C 294.468,164.677 290.135,166.343 286.5,170C 315.664,193.492 323.497,222.659 310,257.5C 305.031,263.734 298.531,266.901 290.5,267C 275.748,270.536 263.914,266.369 255,254.5C 252.562,249.755 251.562,244.755 252,239.5C 271.666,247.13 291.499,247.463 311.5,240.5C 313.406,236.263 313.739,231.93 312.5,227.5C 280.66,239.567 252.826,233.567 229,209.5C 224.796,202.403 223.463,194.736 225,186.5C 229.459,173.51 237.626,163.844 249.5,157.5 Z"/></g>
<g><path style="opacity:1" fill="#3f4962" d="M 47.5,178.5 C 49.2517,178.418 50.2517,179.251 50.5,181C 49.8333,182.667 49.1667,184.333 48.5,186C 52.8125,189.16 57.4791,191.827 62.5,194C 63.8333,195.333 63.8333,196.667 62.5,198C 57.1899,195.85 51.8566,193.35 46.5,190.5C 44.7658,192.234 43.4324,194.234 42.5,196.5C 41.3279,196.081 40.3279,195.415 39.5,194.5C 42.7049,189.423 45.3716,184.09 47.5,178.5 Z"/></g>
<g><path style="opacity:1" fill="#3e4861" d="M 509.5,183.5 C 516.159,181.989 521.326,183.989 525,189.5C 527.731,200.861 523.231,206.361 511.5,206C 504.765,202.475 502.265,196.975 504,189.5C 505.36,186.977 507.193,184.977 509.5,183.5 Z"/></g>
<g><path style="opacity:1" fill="#f5f5f7" d="M 510.5,187.5 C 518.661,186.171 522.495,189.505 522,197.5C 517.658,203.508 512.991,203.841 508,198.5C 506.812,194.259 507.645,190.592 510.5,187.5 Z"/></g>
<g><path style="opacity:1" fill="#35405a" d="M 337.5,229.5 C 347.353,227.881 352.52,231.881 353,241.5C 348.284,251.417 341.951,252.751 334,245.5C 331.156,239.181 332.323,233.847 337.5,229.5 Z"/></g>
<g><path style="opacity:1" fill="#353f5a" d="M 219.5,230.5 C 230.542,229.044 235.376,233.711 234,244.5C 230.723,250.109 225.89,251.942 219.5,250C 211.529,243.599 211.529,237.099 219.5,230.5 Z"/></g>
<g><path style="opacity:1" fill="#e74629" d="M 509.5,360.5 C 529.12,370.643 548.453,381.31 567.5,392.5C 567.5,400.5 567.5,408.5 567.5,416.5C 562.583,429.669 556.583,442.335 549.5,454.5C 547.999,453.248 546.332,452.248 544.5,451.5C 526.565,439.03 507.565,428.363 487.5,419.5C 439.424,395.316 388.424,380.483 334.5,375C 245.222,365.203 160.222,379.703 79.5,418.5C 59.3789,427.722 40.3789,438.722 22.5,451.5C 20.5887,452.075 18.922,453.075 17.5,454.5C 15.4447,449.395 12.6114,444.728 9,440.5C 5.96543,432.681 2.79877,425.014 -0.5,417.5C -0.5,409.167 -0.5,400.833 -0.5,392.5C 18.1904,380.818 37.5237,370.152 57.5,360.5C 72.0155,354.048 86.6822,347.881 101.5,342C 239.94,294.879 375.94,301.046 509.5,360.5 Z"/></g>
<g><path style="opacity:1" fill="#f5a697" d="M 307.5,336.5 C 307.5,333.5 307.5,330.5 307.5,327.5C 304.5,327.5 301.5,327.5 298.5,327.5C 298.813,331.042 298.479,334.375 297.5,337.5C 297.5,333.833 297.5,330.167 297.5,326.5C 301.167,326.5 304.833,326.5 308.5,326.5C 308.813,330.042 308.479,333.375 307.5,336.5 Z"/></g>
<g><path style="opacity:1" fill="#fef8f7" d="M 259.5,326.5 C 268.5,326.5 277.5,326.5 286.5,326.5C 286.5,328.833 286.5,331.167 286.5,333.5C 280.833,333.5 275.167,333.5 269.5,333.5C 269.5,335.833 269.5,338.167 269.5,340.5C 274.5,340.5 279.5,340.5 284.5,340.5C 284.5,342.833 284.5,345.167 284.5,347.5C 279.5,347.5 274.5,347.5 269.5,347.5C 269.5,351.167 269.5,354.833 269.5,358.5C 266.167,358.5 262.833,358.5 259.5,358.5C 259.5,347.833 259.5,337.167 259.5,326.5 Z"/></g>
<g><path style="opacity:1" fill="#fef9f8" d="M 307.5,336.5 C 307.5,343.833 307.5,351.167 307.5,358.5C 304.167,358.5 300.833,358.5 297.5,358.5C 297.5,351.5 297.5,344.5 297.5,337.5C 298.479,334.375 298.813,331.042 298.5,327.5C 301.5,327.5 304.5,327.5 307.5,327.5C 307.5,330.5 307.5,333.5 307.5,336.5 Z"/></g>
<g><path style="opacity:1" fill="#fef5f4" d="M 238.5,327.5 C 240.5,327.5 242.5,327.5 244.5,327.5C 245.581,338.127 246.247,348.793 246.5,359.5C 243.482,359.704 240.482,360.037 237.5,360.5C 236.595,349.833 235.595,339.166 234.5,328.5C 236.099,328.768 237.432,328.434 238.5,327.5 Z"/></g>
<g><path style="opacity:1" fill="#fef6f5" d="M 330.5,329.5 C 339.02,328.05 346.52,330.05 353,335.5C 352.569,338.448 350.735,340.448 347.5,341.5C 342.215,335.531 336.715,335.198 331,340.5C 328.317,353.261 333.15,357.261 345.5,352.5C 352.575,357.089 351.909,360.255 343.5,362C 327.316,363.812 319.482,356.646 320,340.5C 322.357,335.645 325.857,331.979 330.5,329.5 Z"/></g>
<g><path style="opacity:1" fill="#fef5f3" d="M 210.5,330.5 C 214.833,330.5 219.167,330.5 223.5,330.5C 223.89,336.831 220.89,339.164 214.5,337.5C 215.501,346.173 216.501,354.84 217.5,363.5C 214.167,363.5 210.833,363.5 207.5,363.5C 206.826,355.79 205.826,348.123 204.5,340.5C 200.785,340.423 197.119,340.756 193.5,341.5C 192.864,338.894 192.864,336.394 193.5,334C 199.363,333.128 205.03,331.961 210.5,330.5 Z"/></g>
<g><path style="opacity:1" fill="#fef6f4" d="M 376.5,336.5 C 380.179,336.363 383.679,337.029 387,338.5C 390.128,349.68 392.628,361.013 394.5,372.5C 391.513,372.002 388.513,371.502 385.5,371C 384.773,368.876 384.106,366.709 383.5,364.5C 379.037,362.382 374.37,361.549 369.5,362C 368.32,363.896 366.82,365.396 365,366.5C 362.566,365.678 360.066,365.344 357.5,365.5C 357.351,364.448 357.517,363.448 358,362.5C 363.998,353.676 370.164,345.01 376.5,336.5 Z"/></g>
<g><path style="opacity:1" fill="#fef7f6" d="M 167.5,339.5 C 171.182,339.335 174.848,339.501 178.5,340C 185.057,342.685 187.223,347.519 185,354.5C 184.215,356.286 183.049,357.786 181.5,359C 184.167,361.667 186.833,364.333 189.5,367C 186.835,368.201 184.002,369.035 181,369.5C 178.551,368.056 176.385,366.222 174.5,364C 172.527,363.505 170.527,363.338 168.5,363.5C 168.963,366.482 169.296,369.482 169.5,372.5C 166.5,373.167 163.5,373.833 160.5,374.5C 157.922,364.693 155.256,354.859 152.5,345C 152.905,344.055 153.572,343.388 154.5,343C 158.919,341.648 163.252,340.481 167.5,339.5 Z"/></g>
<g><path style="opacity:1" fill="#fef6f4" d="M 411.5,344.5 C 418.562,346.353 425.562,348.52 432.5,351C 440.871,354.909 444.037,361.409 442,370.5C 438.927,377.376 433.593,381.042 426,381.5C 418.501,379.959 411.168,377.959 404,375.5C 406.165,365.154 408.665,354.82 411.5,344.5 Z"/></g>
<g><path style="opacity:1" fill="#e94c30" d="M 168.5,346.5 C 174,345.831 176.167,348.165 175,353.5C 172.2,355.495 169.033,356.495 165.5,356.5C 165.296,353.482 164.963,350.482 164.5,347.5C 166.099,347.768 167.432,347.434 168.5,346.5 Z"/></g>
<g><path style="opacity:1" fill="#fef6f4" d="M 137.5,347.5 C 140.247,348.973 141.081,351.306 140,354.5C 135.781,356.619 131.281,358.119 126.5,359C 125.594,360.699 125.261,362.533 125.5,364.5C 130.207,363.376 134.873,362.043 139.5,360.5C 142.092,362.026 143.092,364.359 142.5,367.5C 138.409,368.085 134.409,369.085 130.5,370.5C 129.337,372.55 129.504,374.55 131,376.5C 135.875,374.53 140.875,372.863 146,371.5C 148.134,373.287 148.967,375.62 148.5,378.5C 140.441,380.464 132.608,383.131 125,386.5C 120.41,377.418 116.577,367.918 113.5,358C 113.645,357.228 113.978,356.561 114.5,356C 122.315,353.232 129.982,350.399 137.5,347.5 Z"/></g>
<g><path style="opacity:1" fill="#ec5e42" d="M 379.5,346.5 C 380.117,346.611 380.617,346.944 381,347.5C 381.502,350.513 382.002,353.513 382.5,356.5C 379.679,356.461 377.012,355.795 374.5,354.5C 376.193,351.816 377.86,349.149 379.5,346.5 Z"/></g>
<g><path style="opacity:1" fill="#e94d30" d="M 419.5,354.5 C 422.767,355.656 426.101,356.823 429.5,358C 434.237,364.181 433.237,369.181 426.5,373C 423.406,373.652 420.406,373.318 417.5,372C 416.422,371.326 415.755,370.326 415.5,369C 416.699,364.109 418.033,359.276 419.5,354.5 Z"/></g>
<g><path style="opacity:1" fill="#fef6f5" d="M 90.5,364.5 C 95.0509,364.053 99.3843,364.719 103.5,366.5C 102.218,368.179 101.218,370.013 100.5,372C 94.9356,371.519 90.1022,373.019 86,376.5C 83.2144,383.838 85.5478,388.505 93,390.5C 95.2527,390.369 97.4194,389.869 99.5,389C 101.24,386.965 103.074,385.131 105,383.5C 107.235,384.368 109.402,385.368 111.5,386.5C 105.215,396.436 96.215,400.269 84.5,398C 71.998,389.149 71.3313,379.482 82.5,369C 85.0993,367.205 87.7659,365.705 90.5,364.5 Z"/></g>
<g><path style="opacity:1" fill="#fef8f7" d="M 478.5,378.5 C 478.826,387.017 478.493,395.35 477.5,403.5C 475.114,402.702 472.78,401.702 470.5,400.5C 469.833,397.833 469.167,395.167 468.5,392.5C 464.715,391.019 461.048,389.353 457.5,387.5C 453.264,392.471 448.598,392.804 443.5,388.5C 451.84,380.16 460.507,372.16 469.5,364.5C 472.167,365.833 474.833,367.167 477.5,368.5C 478.487,371.768 478.82,375.102 478.5,378.5 Z"/></g>
<g><path style="opacity:1" fill="#313c56" d="M 487.5,419.5 C 460.587,469.912 420.587,505.745 367.5,527C 358.379,525.522 349.379,523.189 340.5,520C 293.158,507.846 246.658,510.346 201,527.5C 146.785,506.452 106.285,470.119 79.5,418.5C 160.222,379.703 245.222,365.203 334.5,375C 388.424,380.483 439.424,395.316 487.5,419.5 Z"/></g>
<g><path style="opacity:1" fill="#ec6146" d="M 468.5,375.5 C 469.777,376.694 470.444,378.36 470.5,380.5C 470.167,382.167 469.833,383.833 469.5,385.5C 466.912,384.806 464.579,383.64 462.5,382C 464.706,379.963 466.706,377.797 468.5,375.5 Z"/></g>
<g><path style="opacity:1" fill="#f08571" d="M 478.5,378.5 C 479.821,387.009 479.821,395.675 478.5,404.5C 477.893,404.376 477.56,404.043 477.5,403.5C 478.493,395.35 478.826,387.017 478.5,378.5 Z"/></g>
<g><path style="opacity:1" fill="#e1e3e7" d="M 362.5,410.5 C 363.5,410.5 364.5,410.5 365.5,410.5C 364.754,414.31 363.754,414.31 362.5,410.5 Z"/></g>
<g><path style="opacity:1" fill="#e2e4e8" d="M 179.5,411.5 C 183.257,411.071 186.757,411.737 190,413.5C 190.996,419.334 188.496,421.667 182.5,420.5C 182.5,421.833 182.5,423.167 182.5,424.5C 181.5,424.5 180.5,424.5 179.5,424.5C 179.5,420.167 179.5,415.833 179.5,411.5 Z"/></g>
<g><path style="opacity:1" fill="#cdcfd6" d="M 297.5,411.5 C 300.833,411.5 304.167,411.5 307.5,411.5C 307.5,412.5 307.5,413.5 307.5,414.5C 305.396,414.201 303.396,414.534 301.5,415.5C 303.045,416.452 304.712,416.785 306.5,416.5C 306.5,417.5 306.5,418.5 306.5,419.5C 304.712,419.215 303.045,419.548 301.5,420.5C 303.396,421.466 305.396,421.799 307.5,421.5C 307.5,422.5 307.5,423.5 307.5,424.5C 304.167,424.5 300.833,424.5 297.5,424.5C 297.5,420.167 297.5,415.833 297.5,411.5 Z"/></g>
<g><path style="opacity:1" fill="#e0e2e6" d="M 232.5,412.5 C 233.5,412.5 234.5,412.5 235.5,412.5C 235.36,414.124 236.027,415.29 237.5,416C 234.764,418.835 235.097,421.335 238.5,423.5C 236.389,424.848 234.555,424.515 233,422.5C 231.799,419.133 231.632,415.8 232.5,412.5 Z"/></g>
<g><path style="opacity:1" fill="#e2e3e7" d="M 355.5,412.5 C 360.166,413.273 361.166,415.44 358.5,419C 359.378,420.8 360.045,422.633 360.5,424.5C 358.61,424.703 357.11,424.037 356,422.5C 355.028,419.087 354.862,415.753 355.5,412.5 Z"/></g>
<g><path style="opacity:1" fill="#424b64" d="M 182.5,414.5 C 184.167,414.5 185.833,414.5 187.5,414.5C 187.616,417.91 185.95,419.244 182.5,418.5C 182.5,417.167 182.5,415.833 182.5,414.5 Z"/></g>
<g><path style="opacity:1" fill="#e2e4e7" d="M 203.5,414.5 C 205.924,414.192 208.257,414.526 210.5,415.5C 204.24,416.685 204.073,418.019 210,419.5C 209.902,424.288 207.569,425.621 203,423.5C 202.833,423.167 202.667,422.833 202.5,422.5C 204.078,421.702 205.744,421.202 207.5,421C 203.175,420.502 201.841,418.336 203.5,414.5 Z"/></g>
<g><path style="opacity:1" fill="#cccfd5" d="M 250.5,414.5 C 255.599,414.939 260.599,415.106 265.5,415C 267.34,417.826 268.006,420.993 267.5,424.5C 266.167,424.5 264.833,424.5 263.5,424.5C 263.5,422.167 263.5,419.833 263.5,417.5C 262.5,417.5 261.5,417.5 260.5,417.5C 260.5,419.833 260.5,422.167 260.5,424.5C 259.5,424.5 258.5,424.5 257.5,424.5C 257.5,422.167 257.5,419.833 257.5,417.5C 256.5,417.5 255.5,417.5 254.5,417.5C 254.5,419.833 254.5,422.167 254.5,424.5C 253.167,424.5 251.833,424.5 250.5,424.5C 250.5,421.167 250.5,417.833 250.5,414.5 Z"/></g>
<g><path style="opacity:1" fill="#e4e5e9" d="M 269.5,414.5 C 276.981,412.494 280.147,415.161 279,422.5C 277.155,424.35 275.155,424.683 273,423.5C 272.51,424.793 272.343,426.127 272.5,427.5C 271.5,427.5 270.5,427.5 269.5,427.5C 269.5,423.167 269.5,418.833 269.5,414.5 Z"/></g>
<g><path style="opacity:1" fill="#e6e7eb" d="M 316.5,410.5 C 317.5,410.5 318.5,410.5 319.5,410.5C 319.5,415.167 319.5,419.833 319.5,424.5C 317.403,423.647 315.403,423.647 313.5,424.5C 309.746,423.148 308.579,420.482 310,416.5C 311.789,414.771 313.956,414.104 316.5,414.5C 316.5,413.167 316.5,411.833 316.5,410.5 Z"/></g>
<g><path style="opacity:1" fill="#e3e5e8" d="M 321.5,414.5 C 322.5,414.5 323.5,414.5 324.5,414.5C 324.5,416.833 324.5,419.167 324.5,421.5C 325.833,421.5 327.167,421.5 328.5,421.5C 328.5,419.167 328.5,416.833 328.5,414.5C 329.5,414.5 330.5,414.5 331.5,414.5C 331.5,417.833 331.5,421.167 331.5,424.5C 328.938,423.82 326.271,423.653 323.5,424C 321.773,421.096 321.107,417.93 321.5,414.5 Z"/></g>
<g><path style="opacity:1" fill="#e3e4e8" d="M 335.5,414.5 C 337.527,414.338 339.527,414.505 341.5,415C 341.957,415.414 342.291,415.914 342.5,416.5C 340.892,417.242 339.225,417.409 337.5,417C 336.62,418.356 336.286,419.856 336.5,421.5C 338.527,421.338 340.527,421.505 342.5,422C 339.512,425.384 336.679,425.217 334,421.5C 333.167,418.829 333.667,416.496 335.5,414.5 Z"/></g>
<g><path style="opacity:1" fill="#e2e3e7" d="M 362.5,414.5 C 363.5,414.5 364.5,414.5 365.5,414.5C 365.5,417.833 365.5,421.167 365.5,424.5C 364.5,424.5 363.5,424.5 362.5,424.5C 362.5,421.167 362.5,417.833 362.5,414.5 Z"/></g>
<g><path style="opacity:1" fill="#e3e4e8" d="M 366.5,415.5 C 367.251,414.427 368.251,414.26 369.5,415C 370.987,420.584 372.653,420.751 374.5,415.5C 375.365,414.417 376.365,414.251 377.5,415C 376.22,418.533 374.386,421.699 372,424.5C 370.073,421.545 368.24,418.545 366.5,415.5 Z"/></g>
<g><path style="opacity:1" fill="#e3e5e8" d="M 192.5,414.5 C 199.333,413.67 202,416.67 200.5,423.5C 198.599,423.433 196.766,423.767 195,424.5C 191.822,423.615 190.989,421.782 192.5,419C 194.256,418.798 195.922,418.298 197.5,417.5C 195.345,416.999 193.678,415.999 192.5,414.5 Z"/></g>
<g><path style="opacity:1" fill="#d4d7dc" d="M 241.5,414.5 C 246.206,413.881 248.873,415.881 249.5,420.5C 247.143,420.337 244.81,420.503 242.5,421C 244.577,421.192 246.577,421.692 248.5,422.5C 246.55,424.753 244.216,425.086 241.5,423.5C 238.845,420.466 238.845,417.466 241.5,414.5 Z"/></g>
<g><path style="opacity:1" fill="#dddfe3" d="M 283.5,414.5 C 289.168,413.671 291.668,416.005 291,421.5C 287.667,425.5 284.333,425.5 281,421.5C 280.333,420.167 280.333,418.833 281,417.5C 282.045,416.627 282.878,415.627 283.5,414.5 Z"/></g>
<g><path style="opacity:1" fill="#e3e4e8" d="M 344.5,414.5 C 351.333,413.67 354,416.67 352.5,423.5C 350.599,423.433 348.766,423.767 347,424.5C 343.822,423.615 342.989,421.782 344.5,419C 346.256,418.798 347.922,418.298 349.5,417.5C 347.345,416.999 345.678,415.999 344.5,414.5 Z"/></g>
<g><path style="opacity:1" fill="#dadbe0" d="M 223.5,414.5 C 226.044,414.104 228.211,414.771 230,416.5C 230.497,419.146 230.664,421.813 230.5,424.5C 227.723,424.214 224.889,423.88 222,423.5C 221.084,419.221 222.917,417.388 227.5,418C 226.051,416.883 224.384,416.216 222.5,416C 223.056,415.617 223.389,415.117 223.5,414.5 Z"/></g>
<g><path style="opacity:1" fill="#3d4761" d="M 273.5,416.5 C 276.084,417.048 277.084,418.715 276.5,421.5C 275.167,421.5 273.833,421.5 272.5,421.5C 272.366,419.708 272.699,418.042 273.5,416.5 Z"/></g>
<g><path style="opacity:1" fill="#4b546c" d="M 284.5,416.5 C 287.91,416.384 289.244,418.05 288.5,421.5C 284.065,422.078 282.732,420.411 284.5,416.5 Z"/></g>
<g><path style="opacity:1" fill="#4c546c" d="M 312.5,416.5 C 315.91,416.384 317.244,418.05 316.5,421.5C 312.065,422.078 310.732,420.411 312.5,416.5 Z"/></g>
<g><path style="opacity:1" fill="#e9eaed" d="M 379.5,414.5 C 387.486,413.998 389.486,417.165 385.5,424C 377.999,424.33 375.999,421.164 379.5,414.5 Z"/></g>
<g><path style="opacity:1" fill="#4a536b" d="M 381.5,416.5 C 385.161,416.35 386.161,417.85 384.5,421C 383.207,421.49 381.873,421.657 380.5,421.5C 380.366,419.708 380.699,418.042 381.5,416.5 Z"/></g>
<g><path style="opacity:1" fill="#fdfdfd" d="M 79.5,418.5 C 106.285,470.119 146.785,506.452 201,527.5C 246.658,510.346 293.158,507.846 340.5,520C 349.379,523.189 358.379,525.522 367.5,527C 420.587,505.745 460.587,469.912 487.5,419.5C 507.565,428.363 526.565,439.03 544.5,451.5C 504.038,524.437 443.705,572.937 363.5,597C 248.911,624.9 150.078,597.4 67,514.5C 49.5895,495.267 34.7562,474.267 22.5,451.5C 40.3789,438.722 59.3789,427.722 79.5,418.5 Z"/></g>
<g><path style="opacity:1" fill="#e5e6ea" d="M 213.5,414.5 C 220.662,414.613 220.995,415.613 214.5,417.5C 219.048,417.858 220.382,420.024 218.5,424C 216.231,424.758 214.064,424.591 212,423.5C 211.833,423.167 211.667,422.833 211.5,422.5C 213.423,421.692 215.423,421.192 217.5,421C 212.254,420.663 210.921,418.496 213.5,414.5 Z"/></g>
<g><path style="opacity:0.961" fill="#38425c" d="M 22.5,451.5 C 34.7562,474.267 49.5895,495.267 67,514.5C 150.078,597.4 248.911,624.9 363.5,597C 443.705,572.937 504.038,524.437 544.5,451.5C 546.332,452.248 547.999,453.248 549.5,454.5C 512.302,522.588 457.302,569.921 384.5,596.5C 382.447,596.402 380.78,597.069 379.5,598.5C 377.167,599.167 374.833,599.833 372.5,600.5C 368.845,599.925 365.845,600.925 363.5,603.5C 345.777,607.472 327.777,610.639 309.5,613C 294.5,613.667 279.5,613.667 264.5,613C 249.033,612.139 233.7,610.305 218.5,607.5C 216.898,605.926 214.898,605.259 212.5,605.5C 206.247,603.686 199.914,602.02 193.5,600.5C 188.475,597.932 183.141,595.932 177.5,594.5C 165.758,589.799 154.092,584.799 142.5,579.5C 141.341,577.75 139.674,576.75 137.5,576.5C 136.508,576.672 135.842,576.338 135.5,575.5C 133.371,573.05 130.704,571.383 127.5,570.5C 124.797,568.819 122.131,567.153 119.5,565.5C 118.101,564.11 116.434,563.11 114.5,562.5C 85.5947,542.595 60.5947,518.595 39.5,490.5C 32.497,479.825 25.497,469.158 18.5,458.5C 18.1667,457.167 17.8333,455.833 17.5,454.5C 18.922,453.075 20.5887,452.075 22.5,451.5 Z"/></g>
<g><path style="opacity:0.384" fill="#e7e8eb" d="M 18.5,458.5 C 25.497,469.158 32.497,479.825 39.5,490.5C 34.154,486.318 29.654,481.318 26,475.5C 24.0203,469.546 21.5203,463.88 18.5,458.5 Z"/></g>
<g><path style="opacity:1" fill="#71788b" d="M 262.5,481.5 C 264.417,482.909 266.25,484.576 268,486.5C 268.202,484.744 268.702,483.078 269.5,481.5C 270.833,484.5 270.833,487.5 269.5,490.5C 268.185,488.684 266.685,487.017 265,485.5C 264.798,487.256 264.298,488.922 263.5,490.5C 262.516,487.572 262.183,484.572 262.5,481.5 Z"/></g>
<g><path style="opacity:1" fill="#545d73" d="M 333.5,481.5 C 336.547,480.855 338.713,481.855 340,484.5C 342.333,480.5 344.667,480.5 347,484.5C 347.374,483.584 347.874,482.75 348.5,482C 352.211,481.175 355.878,481.341 359.5,482.5C 359.023,483.478 358.357,484.311 357.5,485C 361.452,487.317 361.118,489.151 356.5,490.5C 354.607,489.628 352.607,489.628 350.5,490.5C 349.006,490.291 347.839,489.624 347,488.5C 346.5,489 346,489.5 345.5,490C 341.459,490.827 337.459,490.66 333.5,489.5C 335.734,487.619 337.067,485.285 337.5,482.5C 336.178,482.33 335.011,482.663 334,483.5C 333.536,482.906 333.369,482.239 333.5,481.5 Z"/></g>
<g><path style="opacity:1" fill="#61697e" d="M 224.5,481.5 C 226.045,482.23 226.878,483.563 227,485.5C 228.396,483.473 230.062,483.14 232,484.5C 232.333,483.5 232.667,482.5 233,481.5C 233.818,484.227 233.652,486.894 232.5,489.5C 230.356,490.953 228.523,490.62 227,488.5C 226.692,489.308 226.192,489.975 225.5,490.5C 224.516,487.572 224.183,484.572 224.5,481.5 Z"/></g>
<g><path style="opacity:1" fill="#9ea3b0" d="M 236.5,484.5 C 237.542,483.209 238.708,483.209 240,484.5C 240.667,486.167 240.667,487.833 240,489.5C 238.667,486.833 237.333,486.833 236,489.5C 235.517,488.552 235.351,487.552 235.5,486.5C 240.137,486.646 240.47,485.979 236.5,484.5 Z"/></g>
<g><path style="opacity:1" fill="#838a9a" d="M 292.5,483.5 C 295.546,484.394 298.546,484.561 301.5,484C 299.113,484.976 297.946,486.809 298,489.5C 297.51,488.207 297.343,486.873 297.5,485.5C 296.167,485.5 294.833,485.5 293.5,485.5C 293.66,487.199 293.494,488.866 293,490.5C 292.503,488.19 292.337,485.857 292.5,483.5 Z"/></g>
<g><path style="opacity:1" fill="#6a7185" d="M 304.5,481.5 C 306.084,482.382 307.751,483.215 309.5,484C 312.167,486 312.167,488 309.5,490C 307.866,490.494 306.199,490.66 304.5,490.5C 304.5,487.5 304.5,484.5 304.5,481.5 Z"/></g>
<g><path style="opacity:1" fill="#ea573b" d="M 210.5,543.5 C 214.224,542.773 216.891,544.106 218.5,547.5C 223.894,549.393 227.394,553.06 229,558.5C 229.706,563.176 230.04,567.843 230,572.5C 225.879,574.588 221.713,576.754 217.5,579C 213.406,579.767 209.406,579.434 205.5,578C 203.192,576.133 200.525,575.133 197.5,575C 196.106,574.044 195.439,572.711 195.5,571C 196.18,566.523 196.68,562.023 197,557.5C 197.667,556.167 198.333,554.833 199,553.5C 203.058,550.265 206.891,546.932 210.5,543.5 Z"/></g>
<g><path style="opacity:1" fill="#fde3de" d="M 211.5,545.5 C 214.694,545.176 215.694,546.342 214.5,549C 213.207,549.49 211.873,549.657 210.5,549.5C 210.433,548.041 210.766,546.708 211.5,545.5 Z"/></g>
<g><path style="opacity:1" fill="#424b64" d="M 236.5,551.5 C 242.061,550.802 247.227,551.802 252,554.5C 253.274,563.156 249.44,566.823 240.5,565.5C 240.5,567.5 240.5,569.5 240.5,571.5C 239.167,571.5 237.833,571.5 236.5,571.5C 236.5,564.833 236.5,558.167 236.5,551.5 Z"/></g>
<g><path style="opacity:1" fill="#4c556d" d="M 255.5,551.5 C 256.833,551.5 258.167,551.5 259.5,551.5C 259.201,553.604 259.534,555.604 260.5,557.5C 263.793,556.031 266.627,556.698 269,559.5C 269.499,563.486 269.666,567.486 269.5,571.5C 268.178,571.67 267.011,571.337 266,570.5C 265.667,567.167 265.333,563.833 265,560.5C 263.333,559.167 261.667,559.167 260,560.5C 259.501,564.152 259.335,567.818 259.5,571.5C 258.167,571.5 256.833,571.5 255.5,571.5C 255.5,564.833 255.5,558.167 255.5,551.5 Z"/></g>
<g><path style="opacity:1" fill="#4a536b" d="M 349.5,553.5 C 350.833,553.5 352.167,553.5 353.5,553.5C 353.5,554.5 353.5,555.5 353.5,556.5C 354.5,556.5 355.5,556.5 356.5,556.5C 356.5,557.5 356.5,558.5 356.5,559.5C 355.5,559.5 354.5,559.5 353.5,559.5C 353.5,562.5 353.5,565.5 353.5,568.5C 354.978,568.238 356.311,568.571 357.5,569.5C 354.718,570.952 352.218,570.619 350,568.5C 349.9,564.798 349.067,561.298 347.5,558C 348.707,556.7 349.374,555.2 349.5,553.5 Z"/></g>
<g><path style="opacity:1" fill="#fef2ef" d="M 203.5,552.5 C 205.527,552.338 207.527,552.505 209.5,553C 206.43,555.9 204.43,559.4 203.5,563.5C 203.833,564.167 204.167,564.833 204.5,565.5C 206.534,560.25 209.867,556.084 214.5,553C 221.25,550.766 225.25,553.099 226.5,560C 226.505,562.163 225.505,563.663 223.5,564.5C 221.937,561.043 220.104,557.71 218,554.5C 216.703,553.216 215.536,553.383 214.5,555C 221.053,561.336 222.053,568.336 217.5,576C 214.5,576.667 211.5,576.667 208.5,576C 206.963,574.89 206.297,573.39 206.5,571.5C 210.514,571.666 214.514,571.499 218.5,571C 218.957,570.586 219.291,570.086 219.5,569.5C 215.204,568.672 210.871,568.172 206.5,568C 198.442,564.26 197.442,559.093 203.5,552.5 Z"/></g>
<g><path style="opacity:1" fill="#e8eaec" d="M 240.5,554.5 C 242.857,554.337 245.19,554.503 247.5,555C 250.371,557.84 250.037,560.174 246.5,562C 244.527,562.495 242.527,562.662 240.5,562.5C 240.5,559.833 240.5,557.167 240.5,554.5 Z"/></g>
<g><path style="opacity:1" fill="#3e4861" d="M 276.5,556.5 C 286.694,557.158 289.028,561.658 283.5,570C 274.667,571.833 271.167,568.333 273,559.5C 274.518,558.837 275.685,557.837 276.5,556.5 Z"/></g>
<g><path style="opacity:1" fill="#3b455f" d="M 304.5,556.5 C 307.505,556.253 310.005,557.253 312,559.5C 312.499,563.152 312.665,566.818 312.5,570.5C 311.5,570.5 310.5,570.5 309.5,570.5C 309.665,567.482 309.498,564.482 309,561.5C 307,558.833 305,558.833 303,561.5C 302.502,564.482 302.335,567.482 302.5,570.5C 301.5,570.5 300.5,570.5 299.5,570.5C 299.665,567.482 299.498,564.482 299,561.5C 297,558.833 295,558.833 293,561.5C 292.502,564.482 292.335,567.482 292.5,570.5C 291.5,570.5 290.5,570.5 289.5,570.5C 289.5,566.167 289.5,561.833 289.5,557.5C 293.399,557.496 297.399,557.829 301.5,558.5C 302.739,558.058 303.739,557.391 304.5,556.5 Z"/></g>
<g><path style="opacity:1" fill="#414b64" d="M 332.5,556.5 C 335.758,557.068 339.091,557.234 342.5,557C 343.333,557.833 344.167,558.667 345,559.5C 345.499,563.152 345.665,566.818 345.5,570.5C 344.5,570.5 343.5,570.5 342.5,570.5C 342.665,567.482 342.498,564.482 342,561.5C 340,558.833 338,558.833 336,561.5C 335.502,564.482 335.335,567.482 335.5,570.5C 334.5,570.5 333.5,570.5 332.5,570.5C 332.5,565.833 332.5,561.167 332.5,556.5 Z"/></g>
<g><path style="opacity:1" fill="#3d4760" d="M 362.5,556.5 C 370.929,557.327 373.929,561.994 371.5,570.5C 367.563,570.793 363.73,570.46 360,569.5C 359.004,563.666 361.504,561.333 367.5,562.5C 367.5,561.5 367.5,560.5 367.5,559.5C 365.085,559.627 362.751,559.793 360.5,560C 360.167,559.667 359.833,559.333 359.5,559C 360.571,558.148 361.571,557.315 362.5,556.5 Z"/></g>
<g><path style="opacity:1" fill="#e6e7eb" d="M 277.5,559.5 C 283.643,560.026 284.976,562.86 281.5,568C 276.504,568.664 274.67,566.498 276,561.5C 276.717,560.956 277.217,560.289 277.5,559.5 Z"/></g>
<g><path style="opacity:1" fill="#3f4962" d="M 320.5,556.5 C 326.026,556.36 329.026,559.027 329.5,564.5C 325.774,564.177 322.107,564.511 318.5,565.5C 318.977,566.478 319.643,567.311 320.5,568C 322.995,568.157 325.328,568.324 327.5,568.5C 327.291,569.086 326.957,569.586 326.5,570C 318.173,572.003 314.673,568.836 316,560.5C 317.397,558.93 318.897,557.596 320.5,556.5 Z"/></g>
<g><path style="opacity:1" fill="#ebecef" d="M 320.5,559.5 C 322.665,559.116 324.332,559.783 325.5,561.5C 323.235,562.647 320.902,562.814 318.5,562C 319.381,561.292 320.047,560.458 320.5,559.5 Z"/></g>
<g><path style="opacity:0.08" fill="#e4e5e8" d="M 114.5,562.5 C 116.434,563.11 118.101,564.11 119.5,565.5C 116.715,566.084 115.048,565.084 114.5,562.5 Z"/></g>
<g><path style="opacity:1" fill="#d7d9df" d="M 363.5,564.5 C 365.167,564.5 366.833,564.5 368.5,564.5C 368.241,568.068 366.241,569.401 362.5,568.5C 362.433,567.041 362.766,565.708 363.5,564.5 Z"/></g>
<g><path style="opacity:1" fill="#fdefed" d="M 198.5,568.5 C 199.5,568.5 200.5,568.5 201.5,568.5C 201.5,569.833 201.5,571.167 201.5,572.5C 200.167,572.5 198.833,572.5 197.5,572.5C 197.433,571.041 197.766,569.708 198.5,568.5 Z"/></g>
<g><path style="opacity:1" fill="#fdece9" d="M 224.5,568.5 C 225.833,568.5 227.167,568.5 228.5,568.5C 228.5,569.833 228.5,571.167 228.5,572.5C 227.167,572.5 225.833,572.5 224.5,572.5C 224.5,571.167 224.5,569.833 224.5,568.5 Z"/></g>
<g><path style="opacity:0.241" fill="#dcdee2" d="M 127.5,570.5 C 130.704,571.383 133.371,573.05 135.5,575.5C 134.735,575.923 133.902,576.257 133,576.5C 130.983,574.651 129.15,572.651 127.5,570.5 Z"/></g>
<g><path style="opacity:0.298" fill="#dcdee4" d="M 137.5,576.5 C 139.674,576.75 141.341,577.75 142.5,579.5C 140.067,579.727 138.401,578.727 137.5,576.5 Z"/></g>
<g><path style="opacity:0.11" fill="#d5d7dc" d="M 177.5,594.5 C 183.141,595.932 188.475,597.932 193.5,600.5C 191.801,600.66 190.134,600.494 188.5,600C 184.387,598.812 180.72,596.979 177.5,594.5 Z"/></g>
<g><path style="opacity:0.027" fill="#edeff1" d="M 384.5,596.5 C 383.365,598.213 381.698,598.88 379.5,598.5C 380.78,597.069 382.447,596.402 384.5,596.5 Z"/></g>
<g><path style="opacity:0.682" fill="#969ca9" d="M 372.5,600.5 C 369.855,602.31 366.855,603.31 363.5,603.5C 365.845,600.925 368.845,599.925 372.5,600.5 Z"/></g>
<g><path style="opacity:0.212" fill="#f1f2f4" d="M 212.5,605.5 C 214.898,605.259 216.898,605.926 218.5,607.5C 215.99,607.946 213.99,607.28 212.5,605.5 Z"/></g>
</svg>
