<?xml version="1.0" encoding="UTF-8"?>
<!DOCTYPE svg PUBLIC "-//W3C//DTD SVG 1.1//EN" "http://www.w3.org/Graphics/SVG/1.1/DTD/svg11.dtd">
<svg xmlns="http://www.w3.org/2000/svg" version="1.1" width="732px" height="589px" style="shape-rendering:geometricPrecision; text-rendering:geometricPrecision; image-rendering:optimizeQuality; fill-rule:evenodd; clip-rule:evenodd" xmlns:xlink="http://www.w3.org/1999/xlink">
<g><path style="opacity:0.997" fill="#fdfdfd" d="M -0.5,-0.5 C 243.5,-0.5 487.5,-0.5 731.5,-0.5C 731.5,195.833 731.5,392.167 731.5,588.5C 487.5,588.5 243.5,588.5 -0.5,588.5C -0.5,392.167 -0.5,195.833 -0.5,-0.5 Z"/></g>
<g><path style="opacity:1" fill="#3f2315" d="M 365.5,22.5 C 364.957,22.56 364.624,22.8933 364.5,23.5C 366.291,24.1698 367.958,24.8365 369.5,25.5C 366.735,25.7976 364.235,26.7976 362,28.5C 358.459,39.2388 354.126,49.5722 349,59.5C 348.197,62.2247 349.197,63.8914 352,64.5C 354.234,63.2985 356.401,61.9652 358.5,60.5C 359.277,53.1215 362.944,47.6215 369.5,44C 372.706,43.1098 375.706,43.4431 378.5,45C 377.002,47.4816 375.502,49.9816 374,52.5C 370.568,54.6808 368.068,57.6808 366.5,61.5C 367.167,61.8333 367.833,62.1667 368.5,62.5C 374.252,59.4092 378.252,54.7426 380.5,48.5C 382.045,47.5481 383.712,47.2148 385.5,47.5C 383.562,53.752 383.229,60.0853 384.5,66.5C 388.518,62.6473 392.685,58.9806 397,55.5C 399.98,49.7094 403.813,44.5427 408.5,40C 410.956,39.0539 412.956,39.5539 414.5,41.5C 409.407,43.0832 407.573,46.4165 409,51.5C 411.903,53.9473 414.57,56.614 417,59.5C 417.483,60.448 417.649,61.448 417.5,62.5C 417.5,63.1667 417.5,63.8333 417.5,64.5C 414.993,69.6781 410.993,73.0114 405.5,74.5C 399.568,74.2291 396.235,71.2291 395.5,65.5C 398.807,66.0508 402.14,66.3841 405.5,66.5C 407.146,60.329 406.646,54.329 404,48.5C 401.277,51.5568 398.944,54.8901 397,58.5C 392.867,61.6311 389.034,65.1311 385.5,69C 379.273,71.8873 375.606,70.0539 374.5,63.5C 372.09,64.3886 369.59,65.0552 367,65.5C 364.283,65.0701 362.116,63.7368 360.5,61.5C 358.076,62.4229 356.076,63.9229 354.5,66C 345.004,69.754 339.671,66.5874 338.5,56.5C 340.659,47.6876 343.992,39.3543 348.5,31.5C 346.167,30.1667 343.833,28.8333 341.5,27.5C 344.286,26.0439 347.286,25.0439 350.5,24.5C 353.349,18.8022 356.182,13.1356 359,7.5C 359.725,6.94149 360.558,6.60816 361.5,6.5C 369.222,10.139 370.556,15.4723 365.5,22.5 Z"/></g>
<g><path style="opacity:1" fill="#3f2315" d="M 177.5,8.5 C 179.635,8.14696 180.968,8.98029 181.5,11C 180,14.1667 178.5,17.3333 177,20.5C 176.553,26.3879 175.22,32.0545 173,37.5C 168.442,45.275 165.609,53.6083 164.5,62.5C 169.543,63.5692 173.377,61.9026 176,57.5C 174.296,63.0146 170.462,65.6812 164.5,65.5C 163.731,77.9734 160.231,89.6401 154,100.5C 145.998,105.709 142.164,103.376 142.5,93.5C 144.024,82.2333 147.024,71.3999 151.5,61C 151.333,60.5 151.167,60 151,59.5C 146.405,63.5504 141.905,67.7171 137.5,72C 134.24,72.7835 131.073,72.6168 128,71.5C 127.185,63.2829 128.851,55.6163 133,48.5C 137.776,42.9001 141.276,43.7335 143.5,51C 141.263,55.5505 139.929,60.3839 139.5,65.5C 140.552,65.6495 141.552,65.4828 142.5,65C 146.345,61.6547 150.011,58.1547 153.5,54.5C 158.358,37.4487 166.358,22.1153 177.5,8.5 Z"/></g>
<g><path style="opacity:1" fill="#402417" d="M 282.5,9.5 C 284.117,10.038 285.784,10.3713 287.5,10.5C 287.665,14.1817 287.499,17.8484 287,21.5C 282.23,31.2834 277.896,41.2834 274,51.5C 270.584,68.1422 274.251,69.8089 285,56.5C 285.167,56.8333 285.333,57.1667 285.5,57.5C 282.144,65.0678 276.478,68.5678 268.5,68C 266.951,66.786 265.785,65.286 265,63.5C 264.894,46.4833 268.894,30.4833 277,15.5C 278.699,13.3039 280.533,11.3039 282.5,9.5 Z"/></g>
<g><path style="opacity:1" fill="#e4e0de" d="M 283.5,12.5 C 285.484,12.484 286.484,13.484 286.5,15.5C 284.131,22.335 281.464,29.0017 278.5,35.5C 277.469,27.2569 279.136,19.5902 283.5,12.5 Z"/></g>
<g><path style="opacity:1" fill="#3e2215" d="M 42.5,20.5 C 45.1873,20.3359 47.854,20.5026 50.5,21C 46.4904,22.3428 42.9904,24.5095 40,27.5C 38.8175,31.2739 39.6508,34.4406 42.5,37C 47.7849,37.6446 52.2849,39.8112 56,43.5C 56.2515,50.4183 54.2515,56.7517 50,62.5C 42.1296,70.5376 32.963,72.7042 22.5,69C 18.391,64.3465 17.5576,59.1798 20,53.5C 19.1419,60.2995 21.9752,63.4662 28.5,63C 35.8858,59.4034 41.3858,53.9034 45,46.5C 45.6667,44.8333 45.6667,43.1667 45,41.5C 33.3348,35.6856 32.5015,28.6856 42.5,20.5 Z"/></g>
<g><path style="opacity:1" fill="#3f2315" d="M 465.5,78.5 C 464.833,78.5 464.5,78.1667 464.5,77.5C 465.263,74.8589 465.43,72.1922 465,69.5C 463.031,75.0446 461.531,80.7112 460.5,86.5C 459.243,87.6226 459.576,88.2893 461.5,88.5C 460.713,90.1042 459.38,90.7709 457.5,90.5C 457.343,84.5745 458.009,78.7411 459.5,73C 459.167,72.1667 458.833,71.3333 458.5,70.5C 456.684,71.8149 455.017,73.3149 453.5,75C 450.653,75.9439 448.153,75.4439 446,73.5C 445.077,60.6766 450.91,53.0099 463.5,50.5C 466.606,43.425 469.106,36.0917 471,28.5C 472.752,25.328 474.752,22.328 477,19.5C 478,20.1667 479,20.8333 480,21.5C 481.534,25.7109 481.867,30.0442 481,34.5C 474.306,48.756 469.139,63.4227 465.5,78.5 Z"/></g>
<g><path style="opacity:1" fill="#402416" d="M 551.5,19.5 C 556.212,19.5448 558.545,21.8781 558.5,26.5C 570.334,23.5102 575.167,27.8435 573,39.5C 570.955,42.4233 568.788,45.2567 566.5,48C 560.056,51.5566 553.389,54.5566 546.5,57C 544.239,59.7716 542.739,62.9382 542,66.5C 539.165,70.3682 536.331,74.2015 533.5,78C 530.262,79.3677 526.928,79.7011 523.5,79C 522.417,74.8608 522.584,70.6941 524,66.5C 525.81,62.7426 527.81,59.0759 530,55.5C 533.038,52.7974 535.705,49.7974 538,46.5C 541.492,36.85 545.992,27.85 551.5,19.5 Z"/></g>
<g><path style="opacity:1" fill="#9b8c84" d="M 365.5,22.5 C 367.042,23.1635 368.709,23.8302 370.5,24.5C 370.376,25.1067 370.043,25.44 369.5,25.5C 367.958,24.8365 366.291,24.1698 364.5,23.5C 364.624,22.8933 364.957,22.56 365.5,22.5 Z"/></g>
<g><path style="opacity:1" fill="#4a2f21" d="M 615.5,26.5 C 618.091,27.2543 619.924,28.921 621,31.5C 622.43,34.3527 623.263,37.3527 623.5,40.5C 618.758,39.7734 615.425,37.1067 613.5,32.5C 611.981,33.8513 610.648,35.3513 609.5,37C 608.365,37.7494 607.365,37.5827 606.5,36.5C 609.551,33.121 612.551,29.7877 615.5,26.5 Z"/></g>
<g><path style="opacity:1" fill="#f3f1f0" d="M 558.5,28.5 C 561.522,28.804 564.522,29.304 567.5,30C 567.957,30.414 568.291,30.914 568.5,31.5C 564.005,40.0294 558.005,47.1961 550.5,53C 549.5,53.6667 548.5,53.6667 547.5,53C 551.052,44.7328 554.719,36.5662 558.5,28.5 Z"/></g>
<g><path style="opacity:1" fill="#44281b" d="M 143.5,32.5 C 147.861,33.5609 149.195,36.2275 147.5,40.5C 143.881,42.3509 141.548,41.3509 140.5,37.5C 141.092,35.5775 142.092,33.9108 143.5,32.5 Z"/></g>
<g><path style="opacity:1" fill="#44281a" d="M 193.5,32.5 C 198.317,33.2373 199.65,35.904 197.5,40.5C 194.084,41.9576 191.751,40.9576 190.5,37.5C 191.092,35.5775 192.092,33.9108 193.5,32.5 Z"/></g>
<g><path style="opacity:1" fill="#4c3023" d="M 300.5,32.5 C 305.448,33.1145 307.114,35.7812 305.5,40.5C 297.254,41.9222 295.587,39.2555 300.5,32.5 Z"/></g>
<g><path style="opacity:1" fill="#472b1d" d="M 683.5,32.5 C 684.978,32.238 686.311,32.5713 687.5,33.5C 691.069,40.0966 689.236,42.4299 682,40.5C 681.109,37.5024 681.609,34.8357 683.5,32.5 Z"/></g>
<g><path style="opacity:1" fill="#3f2316" d="M 76.5,49.5 C 75.7784,49.0825 75.2784,48.4158 75,47.5C 73.117,48.6526 72.2837,50.3193 72.5,52.5C 70.3041,55.434 68.9708,58.7674 68.5,62.5C 70.0876,65.2571 72.421,66.0904 75.5,65C 78.2802,63.1877 80.7802,61.021 83,58.5C 84.3849,52.6531 86.7182,47.3198 90,42.5C 94.1304,43.6284 96.4637,46.295 97,50.5C 98.6196,48.7585 100.12,46.9252 101.5,45C 104.985,44.757 106.985,46.4236 107.5,50C 106.907,52.5095 106.741,55.0095 107,57.5C 109.251,53.8735 112.418,52.7069 116.5,54C 116.53,65.7612 120.196,66.5945 127.5,56.5C 127.833,56.6667 128.167,56.8333 128.5,57C 125.5,61.3333 121.833,65 117.5,68C 115.888,68.7203 114.388,68.5536 113,67.5C 112.825,64.0501 112.658,60.7168 112.5,57.5C 110.033,60.4682 107.367,63.3016 104.5,66C 102.866,66.4935 101.199,66.6602 99.5,66.5C 98.1602,60.49 99.1602,54.8233 102.5,49.5C 102.167,49.1667 101.833,48.8333 101.5,48.5C 98.957,53.8802 95.7903,58.8802 92,63.5C 89.349,66.076 86.1823,67.4093 82.5,67.5C 82.708,61.3755 81.0413,60.8755 77.5,66C 63.7631,71.2529 58.2631,66.7529 61,52.5C 64.6787,46.5928 69.8453,43.0928 76.5,42C 77.6489,44.4592 77.6489,46.9592 76.5,49.5 Z"/></g>
<g><path style="opacity:1" fill="#402416" d="M 331.5,60.5 C 331.5,61.8333 331.5,63.1667 331.5,64.5C 327.762,73.7056 321.428,76.2056 312.5,72C 310.771,70.2111 310.104,68.0444 310.5,65.5C 317.218,68.2218 320.885,66.0551 321.5,59C 320.649,55.6093 319.316,52.4427 317.5,49.5C 314.691,53.4767 311.691,57.31 308.5,61C 307.5,61.3333 306.5,61.6667 305.5,62C 302.133,65.7026 298.466,69.036 294.5,72C 286,74.1667 282.833,71 285,62.5C 286.783,56.9325 289.117,51.5992 292,46.5C 294.966,43.7348 297.633,44.0682 300,47.5C 301.242,52.6937 300.242,57.3603 297,61.5C 296.202,63.2588 296.369,64.9255 297.5,66.5C 306.154,60.0903 313.321,52.4236 319,43.5C 322.274,38.7329 325.774,38.3995 329.5,42.5C 324.232,42.7185 322.065,45.3851 323,50.5C 326.419,53.4124 329.252,56.7457 331.5,60.5 Z"/></g>
<g><path style="opacity:1" fill="#422618" d="M 579.5,31.5 C 581.833,31.5 584.167,31.5 586.5,31.5C 586.296,34.5176 585.963,37.5176 585.5,40.5C 590.026,40.6915 592.692,43.0248 593.5,47.5C 591.752,51.4118 590.252,55.4118 589,59.5C 588.503,61.8098 588.337,64.1432 588.5,66.5C 593.952,66.8563 597.785,64.523 600,59.5C 601.711,50.787 606.711,44.787 615,41.5C 615.772,41.6448 616.439,41.9781 617,42.5C 617.667,44.8333 617.667,47.1667 617,49.5C 614.721,51.2893 612.721,53.2893 611,55.5C 610.627,57.6982 610.127,59.8649 609.5,62C 611.279,65.7785 613.946,66.4452 617.5,64C 623.596,58.5667 627.429,51.7334 629,43.5C 633.46,42.9989 636.626,44.9989 638.5,49.5C 642.475,42.6828 645.809,42.8495 648.5,50C 647.907,52.5095 647.741,55.0095 648,57.5C 650.386,53.5335 653.553,52.3668 657.5,54C 657.453,65.7002 660.953,66.5336 668,56.5C 668.167,57 668.333,57.5 668.5,58C 665.846,61.9876 662.512,65.3209 658.5,68C 656.888,68.7203 655.388,68.5536 654,67.5C 653.825,64.0501 653.658,60.7168 653.5,57.5C 650.742,61.4285 647.242,64.4285 643,66.5C 640.219,65.7849 639.052,63.9515 639.5,61C 640.433,56.8682 641.766,52.8682 643.5,49C 643.167,48.8333 642.833,48.6667 642.5,48.5C 639.86,53.7686 636.693,58.7686 633,63.5C 630.108,65.5772 626.941,66.9105 623.5,67.5C 623.708,61.3755 622.041,60.8755 618.5,66C 611.311,70.0524 605.144,68.8857 600,62.5C 597.131,65.7041 593.965,68.5374 590.5,71C 581.851,73.7045 577.851,70.3712 578.5,61C 578.748,55.9689 579.581,51.1355 581,46.5C 578,51.1667 575,55.8333 572,60.5C 571.833,60 571.667,59.5 571.5,59C 574.894,54.5432 577.227,49.5432 578.5,44C 577.095,39.6763 577.428,35.5096 579.5,31.5 Z"/></g>
<g><path style="opacity:1" fill="#402417" d="M 207.5,41.5 C 208.496,41.4142 209.329,41.7476 210,42.5C 211.504,45.5089 213.004,48.5089 214.5,51.5C 216.851,49.7711 219.518,49.1044 222.5,49.5C 221.121,54.3973 220.121,59.3973 219.5,64.5C 225.789,63.652 228.289,59.9853 227,53.5C 230.765,46.3719 236.598,43.0385 244.5,43.5C 243.68,49.1379 240.847,53.4712 236,56.5C 234.441,58.2166 233.608,60.2166 233.5,62.5C 237.138,62.2623 239.971,60.5956 242,57.5C 243.833,54.3333 245.667,51.1667 247.5,48C 249.134,47.5065 250.801,47.3398 252.5,47.5C 250.731,53.7233 250.231,60.0567 251,66.5C 254.647,64.0205 257.813,61.0205 260.5,57.5C 259.128,62.7616 255.795,66.9283 250.5,70C 248.167,70.6667 245.833,70.6667 243.5,70C 242.292,67.7497 240.959,65.583 239.5,63.5C 235.16,66.4394 231.16,66.106 227.5,62.5C 213.632,73.9893 209.465,71.3226 215,54.5C 212.028,58.452 209.528,62.6187 207.5,67C 201.964,68.4648 199.464,66.2982 200,60.5C 195.928,64.4498 191.762,68.2831 187.5,72C 184.5,72.6667 181.5,72.6667 178.5,72C 177.165,67.4925 177.331,62.9925 179,58.5C 180.37,54.7551 182.037,51.0885 184,47.5C 186.785,43.5866 189.618,43.5866 192.5,47.5C 193.063,48.9385 193.397,50.4385 193.5,52C 191.178,56.1036 189.845,60.6036 189.5,65.5C 192.14,65.046 194.473,63.8793 196.5,62C 201.578,55.943 205.244,49.1096 207.5,41.5 Z"/></g>
<g><path style="opacity:1" fill="#412618" d="M 489.5,47.5 C 490.833,47.5 492.167,47.5 493.5,47.5C 493.533,51.8689 493.2,56.2022 492.5,60.5C 496.803,61.2038 500.303,59.8705 503,56.5C 503.667,57.1667 503.667,57.8333 503,58.5C 499.588,61.8789 495.422,63.3789 490.5,63C 486.688,69.308 481.854,70.1413 476,65.5C 475.407,58.6201 477.907,53.1201 483.5,49C 484.899,48.4054 486.232,48.5721 487.5,49.5C 488.522,49.1445 489.189,48.4778 489.5,47.5 Z"/></g>
<g><path style="opacity:1" fill="#412517" d="M 676.5,44.5 C 680.985,44.6467 683.652,46.98 684.5,51.5C 682.161,55.8528 680.828,60.5194 680.5,65.5C 681.552,65.6495 682.552,65.4828 683.5,65C 688.867,59.9682 693.867,54.6349 698.5,49C 699.899,48.4054 701.232,48.5721 702.5,49.5C 704.173,47.9137 706.173,47.2471 708.5,47.5C 708.533,51.8689 708.2,56.2022 707.5,60.5C 711.803,61.2038 715.303,59.8705 718,56.5C 718.667,57.1667 718.667,57.8333 718,58.5C 714.931,61.8067 711.098,63.3067 706.5,63C 703.029,68.5428 698.362,69.8762 692.5,67C 691.283,65.3523 690.45,63.519 690,61.5C 686.217,64.3159 682.717,67.4826 679.5,71C 668.921,75.0649 665.421,71.5649 669,60.5C 670.874,54.817 673.374,49.4837 676.5,44.5 Z"/></g>
<g><path style="opacity:1" fill="#8c7a71" d="M 76.5,49.5 C 75.5637,50.9744 74.2303,51.9744 72.5,52.5C 72.2837,50.3193 73.117,48.6526 75,47.5C 75.2784,48.4158 75.7784,49.0825 76.5,49.5 Z"/></g>
<g><path style="opacity:1" fill="#4f3426" d="M 723.5,53.5 C 726.998,53.4784 728.331,54.9784 727.5,58C 726.207,58.49 724.873,58.6567 723.5,58.5C 723.5,56.8333 723.5,55.1667 723.5,53.5 Z"/></g>
<g><path style="opacity:1" fill="#eae7e6" d="M 458.5,54.5 C 459.496,54.4142 460.329,54.7476 461,55.5C 462.014,61.9794 459.847,66.9794 454.5,70.5C 454.167,70.1667 453.833,69.8333 453.5,69.5C 454.439,65.5357 455.272,61.5357 456,57.5C 457.045,56.6266 457.878,55.6266 458.5,54.5 Z"/></g>
<g><path style="opacity:1" fill="#c1b8b4" d="M 701.5,51.5 C 703.357,53.2607 704.357,55.594 704.5,58.5C 704.444,59.737 703.944,60.737 703,61.5C 702.39,58.1727 701.89,54.8394 701.5,51.5 Z"/></g>
<g><path style="opacity:1" fill="#c5bdb8" d="M 486.5,51.5 C 488.456,53.032 489.456,55.1986 489.5,58C 489.491,59.4038 488.991,60.5704 488,61.5C 487.39,58.1727 486.89,54.8394 486.5,51.5 Z"/></g>
<g><path style="opacity:1" fill="#9a8b83" d="M 331.5,64.5 C 331.5,63.1667 331.5,61.8333 331.5,60.5C 333.308,61.3168 334.808,60.6502 336,58.5C 335.573,61.1207 334.073,63.1207 331.5,64.5 Z"/></g>
<g><path style="opacity:1" fill="#998a82" d="M 417.5,64.5 C 417.5,63.8333 417.5,63.1667 417.5,62.5C 418.794,61.7101 419.961,60.7101 421,59.5C 420.923,61.7715 419.757,63.4382 417.5,64.5 Z"/></g>
<g><path style="opacity:1" fill="#e6e2e0" d="M 533.5,54.5 C 534.043,54.56 534.376,54.8933 534.5,55.5C 531.202,63.0442 528.369,70.7108 526,78.5C 525.333,74.8333 525.333,71.1667 526,67.5C 528.296,63.0404 530.796,58.7071 533.5,54.5 Z"/></g>
<g><path style="opacity:1" fill="#52382b" d="M 719.5,62.5 C 722.833,62.5 724.5,64.1667 724.5,67.5C 719.58,68.585 717.913,66.9183 719.5,62.5 Z"/></g>
<g><path style="opacity:1" fill="#cec6c2" d="M 398.5,67.5 C 399.922,67.7086 401.255,68.2086 402.5,69C 400.537,69.8442 399.204,69.3442 398.5,67.5 Z"/></g>
<g><path style="opacity:1" fill="#e7e3e2" d="M 161.5,65.5 C 162.074,75.5608 159.907,85.2274 155,94.5C 154.67,91.134 155.003,87.8006 156,84.5C 157.513,78.0905 159.346,71.7572 161.5,65.5 Z"/></g>
<g><path style="opacity:1" fill="#d0c9c5" d="M 464.5,77.5 C 463.573,81.2629 462.24,84.2629 460.5,86.5C 461.531,80.7112 463.031,75.0446 465,69.5C 465.43,72.1922 465.263,74.8589 464.5,77.5 Z"/></g>
<g><path style="opacity:1" fill="#776359" d="M 464.5,77.5 C 464.5,78.1667 464.833,78.5 465.5,78.5C 464.46,82.0366 463.127,85.37 461.5,88.5C 459.576,88.2893 459.243,87.6226 460.5,86.5C 462.24,84.2629 463.573,81.2629 464.5,77.5 Z"/></g>
<g><path style="opacity:1" fill="#eab520" d="M 348.5,586.5 C 235.5,586.5 122.5,586.5 9.5,586.5C 9.5,428.167 9.5,269.833 9.5,111.5C 15.6457,108.294 21.1457,109.294 26,114.5C 114.946,238.446 204.279,362.113 294,485.5C 294.5,499.163 294.667,512.829 294.5,526.5C 304.172,526.334 313.839,526.5 323.5,527C 334.456,541.745 345.289,556.578 356,571.5C 357.295,576.669 356.128,581.169 352.5,585C 351.255,585.791 349.922,586.291 348.5,586.5 Z"/></g>
<g><path style="opacity:1" fill="#191817" d="M 548.5,283.5 C 546.047,282.355 543.713,282.688 541.5,284.5C 525.198,288.273 508.865,291.94 492.5,295.5C 483.965,291.984 475.465,288.318 467,284.5C 447.033,288.742 427.2,293.409 407.5,298.5C 397.138,293.903 386.972,288.903 377,283.5C 376.333,233.833 376.333,184.167 377,134.5C 401.661,128.006 426.495,122.006 451.5,116.5C 461.084,120.956 470.751,125.456 480.5,130C 494.976,127.495 508.476,129.995 521,137.5C 546.516,131.246 572.016,124.913 597.5,118.5C 608.268,123.592 619.101,128.592 630,133.5C 630.833,184.837 630.667,236.17 629.5,287.5C 614.156,291.736 598.656,295.403 583,298.5C 571.332,293.996 559.832,288.996 548.5,283.5 Z"/></g>
<g><path style="opacity:1" fill="#f5f5f5" d="M 448.5,120.5 C 450.199,120.34 451.866,120.506 453.5,121C 460.04,124.77 466.707,128.27 473.5,131.5C 451.647,137.425 429.647,142.759 407.5,147.5C 399.645,144.906 392.312,141.239 385.5,136.5C 406.724,131.527 427.724,126.193 448.5,120.5 Z"/></g>
<g><path style="opacity:1" fill="#f5f5f5" d="M 592.5,123.5 C 602.527,125.008 611.86,128.508 620.5,134C 596.717,140.039 572.883,145.872 549,151.5C 541.646,148.239 534.479,144.573 527.5,140.5C 549.272,134.934 570.939,129.267 592.5,123.5 Z"/></g>
<g><path style="opacity:1" fill="#eaa10a" d="M 471.5,280.5 C 471.667,266.163 471.5,251.829 471,237.5C 470.722,236.584 470.222,235.918 469.5,235.5C 467.762,231.024 465.262,227.024 462,223.5C 448.846,213.524 442.346,200.19 442.5,183.5C 444.984,152.483 461.817,135.816 493,133.5C 501.158,133.442 508.658,135.609 515.5,140C 489.177,142.348 471.677,155.848 463,180.5C 460.442,195.254 463.108,208.92 471,221.5C 475.946,226.446 480.946,231.446 486,236.5C 487.333,239.167 488.667,241.833 490,244.5C 490.667,259.833 490.667,275.167 490,290.5C 483.538,287.426 477.371,284.093 471.5,280.5 Z"/></g>
<g><path style="opacity:1" fill="#fbfbfb" d="M 621.5,137.5 C 622.833,137.5 624.167,137.5 625.5,137.5C 625.5,186.833 625.5,236.167 625.5,285.5C 611.775,288.016 598.109,290.683 584.5,293.5C 583.781,286.466 582.781,279.466 581.5,272.5C 581.833,271.833 582.167,271.167 582.5,270.5C 588.47,269.768 593.303,267.101 597,262.5C 596.806,255.693 595.639,249.026 593.5,242.5C 593.833,241.5 594.167,240.5 594.5,239.5C 598.167,238.333 601.833,237.167 605.5,236C 606.081,235.107 606.415,234.107 606.5,233C 603.141,223.115 599.641,213.282 596,203.5C 595.898,189.256 592.565,175.922 586,163.5C 583.5,161 581,158.5 578.5,156C 575.339,154.587 572.339,152.92 569.5,151C 587.059,146.808 604.392,142.308 621.5,137.5 Z"/></g>
<g><path style="opacity:1" fill="#c3c3c3" d="M 382.5,140.5 C 381.501,186.997 381.168,233.664 381.5,280.5C 380.169,233.665 380.169,186.665 381.5,139.5C 382.107,139.624 382.44,139.957 382.5,140.5 Z"/></g>
<g><path style="opacity:1" fill="#fcfcfc" d="M 382.5,140.5 C 390.178,143.672 397.511,147.339 404.5,151.5C 404.832,198.336 404.499,245.003 403.5,291.5C 395.581,288.874 388.248,285.207 381.5,280.5C 381.168,233.664 381.501,186.997 382.5,140.5 Z"/></g>
<g><path style="opacity:1" fill="#fcfcfc" d="M 421.5,290.5 C 418.848,290.41 416.515,291.076 414.5,292.5C 413.833,292.5 413.167,292.5 412.5,292.5C 410.505,245.845 409.838,198.845 410.5,151.5C 412.857,151.663 415.19,151.497 417.5,151C 418.056,150.617 418.389,150.117 418.5,149.5C 432.312,145.715 446.312,142.548 460.5,140C 442.73,153.744 435.563,171.91 439,194.5C 441.71,208.259 448.71,219.259 460,227.5C 462.503,230.502 464.503,233.835 466,237.5C 466.5,251.829 466.667,266.163 466.5,280.5C 451.447,283.65 436.447,286.983 421.5,290.5 Z"/></g>
<g><path style="opacity:1" fill="#7b5509" d="M 523.5,145.5 C 517.797,145.375 512.13,145.708 506.5,146.5C 509.526,144.981 512.859,144.315 516.5,144.5C 519.025,144.503 521.359,144.837 523.5,145.5 Z"/></g>
<g><path style="opacity:1" fill="#eea50a" d="M 523.5,145.5 C 538.693,147.744 548.693,156.077 553.5,170.5C 553.41,173.152 554.076,175.485 555.5,177.5C 555.335,180.85 555.502,184.183 556,187.5C 559.818,197.467 563.318,207.467 566.5,217.5C 562.643,218.175 558.977,219.342 555.5,221C 554.484,221.519 553.818,222.353 553.5,223.5C 555.972,230.999 557.139,238.665 557,246.5C 552.48,248.758 547.813,250.758 543,252.5C 543.573,261.494 544.406,270.494 545.5,279.5C 528.528,283.294 511.528,286.961 494.5,290.5C 494.667,274.83 494.5,259.163 494,243.5C 490.914,235.076 485.58,228.409 478,223.5C 467.96,211.347 464.293,197.347 467,181.5C 473.16,161.835 486.327,150.168 506.5,146.5C 512.13,145.708 517.797,145.375 523.5,145.5 Z"/></g>
<g><path style="opacity:1" fill="#d4d4d4" d="M 418.5,149.5 C 418.389,150.117 418.056,150.617 417.5,151C 415.19,151.497 412.857,151.663 410.5,151.5C 409.838,198.845 410.505,245.845 412.5,292.5C 411.791,293.404 410.791,293.737 409.5,293.5C 409.5,245.833 409.5,198.167 409.5,150.5C 412.518,150.296 415.518,149.963 418.5,149.5 Z"/></g>
<g><path style="opacity:1" fill="#f9f9f9" d="M 589.5,184.5 C 589.596,190.373 590.263,196.04 591.5,201.5C 593.898,210.751 597.064,219.751 601,228.5C 601.494,230.134 601.66,231.801 601.5,233.5C 597.042,233.93 592.876,235.264 589,237.5C 589.6,242.836 590.6,248.169 592,253.5C 592.667,256.5 592.667,259.5 592,262.5C 587.267,264.35 582.6,266.35 578,268.5C 578.268,276.006 579.101,283.506 580.5,291C 580.167,291.833 579.833,292.667 579.5,293.5C 569.874,289.022 560.208,284.522 550.5,280C 548.323,271.618 547.657,263.118 548.5,254.5C 551.796,253.235 555.129,252.068 558.5,251C 560.487,249.681 561.654,247.848 562,245.5C 561.255,238.448 560.255,231.448 559,224.5C 562.876,222.264 567.042,220.93 571.5,220.5C 569.168,209.821 565.668,199.487 561,189.5C 560.667,184.833 560.333,180.167 560,175.5C 557.683,168.211 554.849,161.211 551.5,154.5C 573.605,152.552 586.272,162.552 589.5,184.5 Z"/></g>
<g><path style="opacity:1" fill="#90640e" d="M 553.5,170.5 C 554.924,172.515 555.59,174.848 555.5,177.5C 554.076,175.485 553.41,173.152 553.5,170.5 Z"/></g>
<g><path style="opacity:1" fill="#828282" d="M 589.5,184.5 C 591.117,189.916 591.784,195.583 591.5,201.5C 590.263,196.04 589.596,190.373 589.5,184.5 Z"/></g>
<g><path style="opacity:1" fill="#251b0c" d="M 541.5,196.5 C 544.261,195.915 545.927,196.915 546.5,199.5C 545.833,203.576 543.666,204.909 540,203.5C 539.833,202.667 539.667,201.833 539.5,201C 540.074,199.393 540.74,197.893 541.5,196.5 Z"/></g>
<g><path style="opacity:1" fill="#939393" d="M 404.5,151.5 C 405.831,198.335 405.831,245.335 404.5,292.5C 403.893,292.376 403.56,292.043 403.5,291.5C 404.499,245.003 404.832,198.336 404.5,151.5 Z"/></g>
<g><path style="opacity:1" fill="#5c4008" d="M 469.5,235.5 C 470.222,235.918 470.722,236.584 471,237.5C 471.5,251.829 471.667,266.163 471.5,280.5C 470.769,265.648 470.102,250.648 469.5,235.5 Z"/></g>
<g><path style="opacity:1" fill="#868686" d="M 548.5,283.5 C 546.194,283.993 543.861,284.326 541.5,284.5C 543.713,282.688 546.047,282.355 548.5,283.5 Z"/></g>
<g><path style="opacity:1" fill="#626262" d="M 421.5,290.5 C 419.485,291.924 417.152,292.59 414.5,292.5C 416.515,291.076 418.848,290.41 421.5,290.5 Z"/></g>
<g><path style="opacity:1" fill="#60605e" d="M 345.5,318.5 C 337.833,318.5 330.167,318.5 322.5,318.5C 322.5,331.5 322.5,344.5 322.5,357.5C 330.167,357.5 337.833,357.5 345.5,357.5C 337.684,358.492 329.684,358.826 321.5,358.5C 321.5,344.833 321.5,331.167 321.5,317.5C 329.684,317.174 337.684,317.508 345.5,318.5 Z"/></g>
<g><path style="opacity:1" fill="#1c1c1b" d="M 345.5,318.5 C 345.5,319.167 345.5,319.833 345.5,320.5C 338.5,320.5 331.5,320.5 324.5,320.5C 324.5,325.5 324.5,330.5 324.5,335.5C 330.833,335.5 337.167,335.5 343.5,335.5C 337.735,337.147 331.735,338.147 325.5,338.5C 325.5,343.833 325.5,349.167 325.5,354.5C 332.167,354.5 338.833,354.5 345.5,354.5C 345.5,355.5 345.5,356.5 345.5,357.5C 337.833,357.5 330.167,357.5 322.5,357.5C 322.5,344.5 322.5,331.5 322.5,318.5C 330.167,318.5 337.833,318.5 345.5,318.5 Z"/></g>
<g><path style="opacity:1" fill="#a7a7a6" d="M 567.5,313.5 C 567.828,318.875 567.495,324.208 566.5,329.5C 565.893,329.376 565.56,329.043 565.5,328.5C 566.167,323.5 566.833,318.5 567.5,313.5 Z"/></g>
<g><path style="opacity:1" fill="#919191" d="M 345.5,320.5 C 339.021,321.491 332.354,321.824 325.5,321.5C 325.5,325.833 325.5,330.167 325.5,334.5C 331.69,334.177 337.69,334.51 343.5,335.5C 337.167,335.5 330.833,335.5 324.5,335.5C 324.5,330.5 324.5,325.5 324.5,320.5C 331.5,320.5 338.5,320.5 345.5,320.5 Z"/></g>
<g><path style="opacity:1" fill="#8e8e8d" d="M 629.5,313.5 C 629.828,318.875 629.495,324.208 628.5,329.5C 627.893,329.376 627.56,329.043 627.5,328.5C 628.167,323.5 628.833,318.5 629.5,313.5 Z"/></g>
<g><path style="opacity:1" fill="#20201f" d="M 440.5,328.5 C 440.367,333.272 441.7,333.438 444.5,329C 446.902,328.186 449.235,328.353 451.5,329.5C 447.496,330.747 444.33,333.08 442,336.5C 440.609,343.746 440.109,351.079 440.5,358.5C 439.209,358.737 438.209,358.404 437.5,357.5C 437.5,347.833 437.5,338.167 437.5,328.5C 438.5,328.5 439.5,328.5 440.5,328.5 Z"/></g>
<g><path style="opacity:1" fill="#232322" d="M 507.5,335.5 C 507.5,337.833 507.5,340.167 507.5,342.5C 504.615,342.194 501.948,342.527 499.5,343.5C 495.833,343.5 492.167,343.5 488.5,343.5C 490.163,355.748 496.329,358.748 507,352.5C 507.757,355.476 506.591,357.309 503.5,358C 494.354,360.843 488.521,357.676 486,348.5C 485.333,344.167 485.333,339.833 486,335.5C 489.224,327.654 494.724,325.487 502.5,329C 505.021,330.558 506.688,332.725 507.5,335.5 Z"/></g>
<g><path style="opacity:1" fill="#ededec" d="M 493.5,330.5 C 501.059,329.73 504.726,333.063 504.5,340.5C 499.167,340.5 493.833,340.5 488.5,340.5C 488.592,336.316 490.259,332.983 493.5,330.5 Z"/></g>
<g><path style="opacity:1" fill="#232321" d="M 629.5,313.5 C 630.5,313.5 631.5,313.5 632.5,313.5C 632.833,328.182 632.499,342.848 631.5,357.5C 630.201,356.91 629.368,355.91 629,354.5C 619.236,361.568 612.903,359.234 610,347.5C 607.807,339.464 609.973,332.964 616.5,328C 620.221,327.322 623.888,327.489 627.5,328.5C 627.56,329.043 627.893,329.376 628.5,329.5C 629.495,324.208 629.828,318.875 629.5,313.5 Z"/></g>
<g><path style="opacity:1" fill="#efefee" d="M 618.5,330.5 C 622.422,330.069 625.922,331.069 629,333.5C 630.493,340.863 629.326,347.696 625.5,354C 621.526,356.364 618.026,355.864 615,352.5C 612.599,347.768 611.932,342.768 613,337.5C 613.967,334.379 615.8,332.046 618.5,330.5 Z"/></g>
<g><path style="opacity:1" fill="#939393" d="M 407.5,328.5 C 405.517,342.461 404.85,356.794 405.5,371.5C 404.504,357.01 404.171,342.343 404.5,327.5C 405.791,327.263 406.791,327.596 407.5,328.5 Z"/></g>
<g><path style="opacity:1" fill="#a1a1a1" d="M 520.5,328.5 C 519.5,328.5 518.5,328.5 517.5,328.5C 517.5,338.167 517.5,347.833 517.5,357.5C 516.506,347.681 516.173,337.681 516.5,327.5C 518.099,327.232 519.432,327.566 520.5,328.5 Z"/></g>
<g><path style="opacity:1" fill="#1e1e1d" d="M 675.5,357.5 C 675.168,347.81 675.502,338.144 676.5,328.5C 677.167,330.167 677.833,331.833 678.5,333.5C 679.107,333.376 679.44,333.043 679.5,332.5C 681.474,328.207 684.807,326.54 689.5,327.5C 689.5,328.5 689.5,329.5 689.5,330.5C 684.16,330.665 680.66,333.332 679,338.5C 678.5,345.158 678.334,351.825 678.5,358.5C 677.209,358.737 676.209,358.404 675.5,357.5 Z"/></g>
<g><path style="opacity:1" fill="#9f9f9d" d="M 440.5,328.5 C 439.5,328.5 438.5,328.5 437.5,328.5C 437.5,338.167 437.5,347.833 437.5,357.5C 436.506,347.681 436.173,337.681 436.5,327.5C 438.099,327.232 439.432,327.566 440.5,328.5 Z"/></g>
<g><path style="opacity:1" fill="#232322" d="M 462.5,327.5 C 474.018,326.49 479.352,331.823 478.5,343.5C 471.833,343.5 465.167,343.5 458.5,343.5C 459.809,355.156 465.809,358.49 476.5,353.5C 477.739,355.007 477.405,356.174 475.5,357C 465.336,361.168 458.836,358.001 456,347.5C 453.916,339.253 456.083,332.587 462.5,327.5 Z"/></g>
<g><path style="opacity:1" fill="#efefef" d="M 463.5,330.5 C 471.059,329.73 474.726,333.063 474.5,340.5C 469.5,340.5 464.5,340.5 459.5,340.5C 459.338,338.473 459.505,336.473 460,334.5C 461.376,333.295 462.542,331.962 463.5,330.5 Z"/></g>
<g><path style="opacity:1" fill="#999998" d="M 679.5,332.5 C 679.44,333.043 679.107,333.376 678.5,333.5C 677.833,331.833 677.167,330.167 676.5,328.5C 675.502,338.144 675.168,347.81 675.5,357.5C 674.506,347.681 674.173,337.681 674.5,327.5C 675.833,327.5 677.167,327.5 678.5,327.5C 678.216,329.415 678.549,331.081 679.5,332.5 Z"/></g>
<g><path style="opacity:1" fill="#575755" d="M 343.5,335.5 C 344.404,336.209 344.737,337.209 344.5,338.5C 338.167,338.5 331.833,338.5 325.5,338.5C 331.735,338.147 337.735,337.147 343.5,335.5 Z"/></g>
<g><path style="opacity:1" fill="#222221" d="M 538.5,333.5 C 538.5,341.5 538.5,349.5 538.5,357.5C 537.5,357.5 536.5,357.5 535.5,357.5C 535.666,349.493 535.5,341.493 535,333.5C 532.79,330.71 529.956,329.877 526.5,331C 524.291,332.873 522.458,335.04 521,337.5C 520.5,344.492 520.334,351.492 520.5,358.5C 519.209,358.737 518.209,358.404 517.5,357.5C 517.5,347.833 517.5,338.167 517.5,328.5C 518.5,328.5 519.5,328.5 520.5,328.5C 520.343,329.873 520.51,331.207 521,332.5C 527.245,325.702 533.079,326.035 538.5,333.5 Z"/></g>
<g><path style="opacity:1" fill="#212120" d="M 601.5,334.5 C 601.5,337.167 601.5,339.833 601.5,342.5C 595.167,342.5 588.833,342.5 582.5,342.5C 582.216,344.415 582.549,346.081 583.5,347.5C 586.655,355.806 592.322,357.806 600.5,353.5C 601.833,354.5 601.833,355.5 600.5,356.5C 586.916,361.434 579.916,356.6 579.5,342C 579.908,331.587 585.242,326.92 595.5,328C 598.386,329.385 600.386,331.551 601.5,334.5 Z"/></g>
<g><path style="opacity:1" fill="#eeeeee" d="M 587.5,330.5 C 595.01,329.678 598.676,333.012 598.5,340.5C 593.5,340.5 588.5,340.5 583.5,340.5C 583.186,336.468 584.519,333.135 587.5,330.5 Z"/></g>
<g><path style="opacity:1" fill="#6d6d6b" d="M 393.5,332.5 C 394.493,340.984 394.826,349.651 394.5,358.5C 393.167,358.5 391.833,358.5 390.5,358.5C 390.5,350.5 390.5,342.5 390.5,334.5C 391.167,342.01 391.833,349.677 392.5,357.5C 393.498,349.193 393.831,340.86 393.5,332.5 Z"/></g>
<g><path style="opacity:1" fill="#a9a9a8" d="M 538.5,333.5 C 539.493,341.65 539.826,349.983 539.5,358.5C 537.901,358.768 536.568,358.434 535.5,357.5C 536.5,357.5 537.5,357.5 538.5,357.5C 538.5,349.5 538.5,341.5 538.5,333.5 Z"/></g>
<g><path style="opacity:1" fill="#20201f" d="M 393.5,332.5 C 393.831,340.86 393.498,349.193 392.5,357.5C 391.833,349.677 391.167,342.01 390.5,334.5C 387.185,329.544 383.352,329.211 379,333.5C 377.878,335.407 377.045,337.407 376.5,339.5C 376.147,345.735 375.147,351.735 373.5,357.5C 372.671,349.343 372.171,341.01 372,332.5C 364.69,329.073 360.19,331.406 358.5,339.5C 357.833,345.346 357.167,351.346 356.5,357.5C 355.167,347.833 355.167,338.167 356.5,328.5C 357.167,330.167 357.833,331.833 358.5,333.5C 359.107,333.376 359.44,333.043 359.5,332.5C 362.605,327.352 366.938,326.186 372.5,329C 373.685,330.353 375.019,331.52 376.5,332.5C 379.318,327.971 383.318,326.471 388.5,328C 390.66,328.996 392.327,330.496 393.5,332.5 Z"/></g>
<g><path style="opacity:1" fill="#747473" d="M 359.5,332.5 C 359.44,333.043 359.107,333.376 358.5,333.5C 357.833,331.833 357.167,330.167 356.5,328.5C 355.167,338.167 355.167,347.833 356.5,357.5C 357.167,351.346 357.833,345.346 358.5,339.5C 358.5,345.833 358.5,352.167 358.5,358.5C 357.167,358.5 355.833,358.5 354.5,358.5C 354.5,348.167 354.5,337.833 354.5,327.5C 355.833,327.5 357.167,327.5 358.5,327.5C 358.216,329.415 358.549,331.081 359.5,332.5 Z"/></g>
<g><path style="opacity:1" fill="#717171" d="M 507.5,335.5 C 508.473,337.948 508.806,340.615 508.5,343.5C 505.5,343.5 502.5,343.5 499.5,343.5C 501.948,342.527 504.615,342.194 507.5,342.5C 507.5,340.167 507.5,337.833 507.5,335.5 Z"/></g>
<g><path style="opacity:1" fill="#555554" d="M 601.5,334.5 C 602.477,337.287 602.81,340.287 602.5,343.5C 596.167,343.5 589.833,343.5 583.5,343.5C 583.5,344.833 583.5,346.167 583.5,347.5C 582.549,346.081 582.216,344.415 582.5,342.5C 588.833,342.5 595.167,342.5 601.5,342.5C 601.5,339.833 601.5,337.167 601.5,334.5 Z"/></g>
<g><path style="opacity:1" fill="#696968" d="M 376.5,339.5 C 376.5,345.833 376.5,352.167 376.5,358.5C 375.209,358.737 374.209,358.404 373.5,357.5C 375.147,351.735 376.147,345.735 376.5,339.5 Z"/></g>
<g><path style="opacity:1" fill="#272727" d="M 650.5,327.5 C 663.036,328.179 668.202,334.845 666,347.5C 663.541,356.484 657.708,359.984 648.5,358C 641.06,350.62 639.56,342.12 644,332.5C 645.805,330.174 647.972,328.508 650.5,327.5 Z"/></g>
<g><path style="opacity:1" fill="#f4f4f4" d="M 650.5,330.5 C 655.814,329.74 659.647,331.74 662,336.5C 662.667,340.5 662.667,344.5 662,348.5C 660.328,354.507 656.495,356.673 650.5,355C 648.448,354.07 646.948,352.57 646,350.5C 645.333,345.5 645.333,340.5 646,335.5C 647.366,333.638 648.866,331.972 650.5,330.5 Z"/></g>
<g><path style="opacity:1" fill="#20201f" d="M 567.5,313.5 C 568.5,313.5 569.5,313.5 570.5,313.5C 570.833,328.182 570.499,342.848 569.5,357.5C 568.667,356.5 567.833,355.5 567,354.5C 558.549,361.065 552.216,359.399 548,349.5C 545.386,340.374 547.886,333.208 555.5,328C 558.888,327.341 562.221,327.508 565.5,328.5C 565.56,329.043 565.893,329.376 566.5,329.5C 567.495,324.208 567.828,318.875 567.5,313.5 Z"/></g>
<g><path style="opacity:1" fill="#efefef" d="M 556.5,330.5 C 560.516,329.9 564.016,330.9 567,333.5C 568.766,341.451 567.266,348.617 562.5,355C 556.531,356.71 552.697,354.543 551,348.5C 549.015,341.128 550.848,335.128 556.5,330.5 Z"/></g>
<g><path style="opacity:1" fill="#282927" d="M 405.5,371.5 C 404.85,356.794 405.517,342.461 407.5,328.5C 408.268,329.263 408.768,330.263 409,331.5C 417.098,325.344 423.431,327.01 428,336.5C 430.039,345.39 427.539,352.556 420.5,358C 416.775,358.76 413.108,358.593 409.5,357.5C 408.507,362.12 408.173,366.786 408.5,371.5C 407.5,371.5 406.5,371.5 405.5,371.5 Z"/></g>
<g><path style="opacity:1" fill="#f5f5f4" d="M 413.5,330.5 C 420.828,330.494 424.494,334.161 424.5,341.5C 425.068,353.462 419.902,357.462 409,353.5C 408.333,347.833 408.333,342.167 409,336.5C 410.332,334.34 411.832,332.34 413.5,330.5 Z"/></g>
<g><path style="opacity:1" fill="#1f1f1e" d="M 428.5,378.5 C 429.5,378.5 430.5,378.5 431.5,378.5C 431.5,379.833 431.5,381.167 431.5,382.5C 430.5,382.5 429.5,382.5 428.5,382.5C 428.5,381.167 428.5,379.833 428.5,378.5 Z"/></g>
<g><path style="opacity:1" fill="#7a7a79" d="M 428.5,378.5 C 428.5,379.833 428.5,381.167 428.5,382.5C 429.5,382.5 430.5,382.5 431.5,382.5C 430.432,383.434 429.099,383.768 427.5,383.5C 427.216,381.585 427.549,379.919 428.5,378.5 Z"/></g>
<g><path style="opacity:1" fill="#212121" d="M 471.5,375.5 C 472.5,375.5 473.5,375.5 474.5,375.5C 474.333,388.837 474.5,402.171 475,415.5C 475.71,416.973 476.876,417.64 478.5,417.5C 478.5,418.5 478.5,419.5 478.5,420.5C 475.439,420.556 473.272,419.222 472,416.5C 471.5,402.837 471.333,389.171 471.5,375.5 Z"/></g>
<g><path style="opacity:1" fill="#292929" d="M 428.5,390.5 C 429.5,390.5 430.5,390.5 431.5,390.5C 431.5,400.5 431.5,410.5 431.5,420.5C 430.5,420.5 429.5,420.5 428.5,420.5C 428.5,410.5 428.5,400.5 428.5,390.5 Z"/></g>
<g><path style="opacity:1" fill="#252524" d="M 623.5,389.5 C 628.384,388.861 632.217,390.527 635,394.5C 636.41,403.084 636.91,411.75 636.5,420.5C 635.167,420.5 633.833,420.5 632.5,420.5C 632.666,412.16 632.5,403.827 632,395.5C 627.694,391.325 623.694,391.658 620,396.5C 619.138,398.087 618.471,399.754 618,401.5C 617.5,407.825 617.334,414.158 617.5,420.5C 616.5,420.5 615.5,420.5 614.5,420.5C 614.5,410.5 614.5,400.5 614.5,390.5C 615.5,390.5 616.5,390.5 617.5,390.5C 617.34,392.199 617.506,393.866 618,395.5C 619.36,392.977 621.193,390.977 623.5,389.5 Z"/></g>
<g><path style="opacity:1" fill="#212120" d="M 344.5,379.5 C 349.412,379.063 354.078,379.896 358.5,382C 359.731,383.183 359.731,384.349 358.5,385.5C 352.604,381.598 346.771,381.598 341,385.5C 340.21,388.634 340.543,391.634 342,394.5C 346.937,397.385 352.104,399.885 357.5,402C 361.5,407.333 361.5,412.667 357.5,418C 352.092,420.444 346.426,421.11 340.5,420C 337.208,419.244 336.208,417.411 337.5,414.5C 342.416,417.416 347.749,418.249 353.5,417C 357.732,413.686 358.398,409.853 355.5,405.5C 351.746,403.19 347.746,401.357 343.5,400C 337.823,396.364 335.99,391.197 338,384.5C 339.805,382.174 341.972,380.508 344.5,379.5 Z"/></g>
<g><path style="opacity:1" fill="#262624" d="M 653.5,389.5 C 664.012,389.075 669.345,394.075 669.5,404.5C 669.298,416.89 663.298,422.057 651.5,420C 643.45,411.941 642.45,403.108 648.5,393.5C 650.21,392.113 651.877,390.779 653.5,389.5 Z"/></g>
<g><path style="opacity:1" fill="#f4f4f4" d="M 654.5,392.5 C 659.421,392.043 662.921,394.043 665,398.5C 665.667,403.167 665.667,407.833 665,412.5C 662.201,417.287 658.034,418.787 652.5,417C 651.228,415.693 650.228,414.193 649.5,412.5C 648.338,407.869 648.172,403.202 649,398.5C 650.36,395.977 652.193,393.977 654.5,392.5 Z"/></g>
<g><path style="opacity:1" fill="#262625" d="M 539.5,389.5 C 552.391,390.58 557.558,397.58 555,410.5C 552.26,419.288 546.427,422.454 537.5,420C 530.615,413.481 528.781,405.648 532,396.5C 533.742,393.254 536.242,390.921 539.5,389.5 Z"/></g>
<g><path style="opacity:1" fill="#f5f5f5" d="M 538.5,393.5 C 541.187,393.336 543.854,393.503 546.5,394C 548.667,394.833 550.167,396.333 551,398.5C 551.667,403.167 551.667,407.833 551,412.5C 548.103,417.155 543.937,418.655 538.5,417C 536.951,415.786 535.785,414.286 535,412.5C 534.333,407.833 534.333,403.167 535,398.5C 535.997,396.677 537.164,395.01 538.5,393.5 Z"/></g>
<g><path style="opacity:1" fill="#1f1f1e" d="M 446.5,389.5 C 451.701,389.354 456.201,391.02 460,394.5C 460.255,403.2 460.755,411.867 461.5,420.5C 459.362,420.297 457.695,419.297 456.5,417.5C 452.608,420.326 448.275,421.159 443.5,420C 439.985,415.72 439.652,411.22 442.5,406.5C 447.045,403.655 452.045,402.321 457.5,402.5C 457.568,394.413 453.568,391.246 445.5,393C 444.335,394.084 443.002,394.917 441.5,395.5C 440.167,394.5 440.167,393.5 441.5,392.5C 443.145,391.304 444.811,390.304 446.5,389.5 Z"/></g>
<g><path style="opacity:1" fill="#252524" d="M 588.5,380.5 C 590.167,380.5 591.833,380.5 593.5,380.5C 597.847,393.853 602.18,407.186 606.5,420.5C 605.5,420.5 604.5,420.5 603.5,420.5C 602.699,416.765 601.699,413.099 600.5,409.5C 594.132,409.17 587.798,409.504 581.5,410.5C 580.346,413.452 579.346,416.452 578.5,419.5C 577.675,420.386 576.675,420.719 575.5,420.5C 579.438,407.021 583.771,393.687 588.5,380.5 Z"/></g>
<g><path style="opacity:1" fill="#f2f2f2" d="M 597.5,402.5 C 597.5,403.5 597.5,404.5 597.5,405.5C 592.706,406.097 588.373,405.43 584.5,403.5C 585.604,397.41 587.771,391.744 591,386.5C 593.259,391.772 595.426,397.105 597.5,402.5 Z"/></g>
<g><path style="opacity:1" fill="#8d8d8d" d="M 597.5,402.5 C 598.434,403.568 598.768,404.901 598.5,406.5C 593.5,406.5 588.5,406.5 583.5,406.5C 583.263,405.209 583.596,404.209 584.5,403.5C 588.373,405.43 592.706,406.097 597.5,405.5C 597.5,404.5 597.5,403.5 597.5,402.5 Z"/></g>
<g><path style="opacity:1" fill="#252524" d="M 376.5,389.5 C 390.187,390.482 395.353,397.815 392,411.5C 389.24,419.585 383.74,422.418 375.5,420C 372.272,418.437 370.105,415.937 369,412.5C 365.625,402.792 368.125,395.125 376.5,389.5 Z"/></g>
<g><path style="opacity:1" fill="#f3f3f2" d="M 376.5,393.5 C 387.416,393.27 391.583,398.603 389,409.5C 387.58,416.588 383.413,419.088 376.5,417C 374.652,415.482 373.152,413.649 372,411.5C 371.333,407.167 371.333,402.833 372,398.5C 373.059,396.341 374.559,394.674 376.5,393.5 Z"/></g>
<g><path style="opacity:1" fill="#ebebeb" d="M 449.5,405.5 C 452.167,405.5 454.833,405.5 457.5,405.5C 457.688,409.091 456.855,412.424 455,415.5C 447.28,420.77 443.613,418.77 444,409.5C 445.5,407.531 447.333,406.198 449.5,405.5 Z"/></g>
<g><path style="opacity:1" fill="#242423" d="M 518.5,376.5 C 519.5,376.5 520.5,376.5 521.5,376.5C 521.216,391.202 521.55,405.869 522.5,420.5C 519.95,420.439 518.45,419.106 518,416.5C 514.34,420.367 509.84,421.534 504.5,420C 497.317,412.005 496.484,403.172 502,393.5C 507.011,388.971 512.511,388.305 518.5,391.5C 518.5,386.5 518.5,381.5 518.5,376.5 Z"/></g>
<g><path style="opacity:1" fill="#f1f1f0" d="M 507.5,392.5 C 511.422,392.069 514.922,393.069 518,395.5C 518.667,400.167 518.667,404.833 518,409.5C 516.751,416.096 512.917,418.596 506.5,417C 499.508,408.45 499.842,400.283 507.5,392.5 Z"/></g>
<g><path style="opacity:1" fill="#262625" d="M 408.5,389.5 C 411.187,389.336 413.854,389.503 416.5,390C 417.728,390.779 418.728,391.779 419.5,393C 405.059,391.477 399.892,397.977 404,412.5C 405.046,414.09 406.213,415.59 407.5,417C 411.225,417.76 414.892,417.593 418.5,416.5C 419.739,418.007 419.405,419.174 417.5,420C 410.541,422.062 405.041,420.229 401,414.5C 398.742,407.678 399.076,401.011 402,394.5C 403.965,392.45 406.132,390.783 408.5,389.5 Z"/></g>
<g><path style="opacity:1" fill="#f28d2f" d="M 157.5,415.5 C 158.5,415.5 159.5,415.5 160.5,415.5C 155.556,422.347 151.556,429.68 148.5,437.5C 148.167,436.667 147.833,435.833 147.5,435C 149.377,427.745 152.711,421.245 157.5,415.5 Z"/></g>
<g><path style="opacity:1" fill="#e88c34" d="M 133.5,438.5 C 129.298,438.183 125.298,438.517 121.5,439.5C 120.833,439.5 120.167,439.5 119.5,439.5C 119.463,430.884 119.796,422.217 120.5,413.5C 121.675,413.281 122.675,413.614 123.5,414.5C 122.321,422.141 122.321,429.808 123.5,437.5C 127.042,437.187 130.375,437.521 133.5,438.5 Z"/></g>
<g><path style="opacity:1" fill="#48438f" d="M 121.5,439.5 C 125.298,438.517 129.298,438.183 133.5,438.5C 141.3,439.399 147.633,442.899 152.5,449C 155.618,450.059 158.618,451.392 161.5,453C 163.211,454.133 163.711,455.633 163,457.5C 160.692,458.991 158.192,459.991 155.5,460.5C 149.044,460.768 142.711,460.101 136.5,458.5C 137.089,447.756 132.089,441.423 121.5,439.5 Z"/></g>
<g><path style="opacity:1" fill="#f38c2f" d="M 75.5,437.5 C 77.1992,437.34 78.8659,437.506 80.5,438C 85.6382,440.571 90.9715,442.571 96.5,444C 97.9733,444.71 98.6399,445.876 98.5,447.5C 90.7579,445.465 83.0912,443.132 75.5,440.5C 75.5,439.5 75.5,438.5 75.5,437.5 Z"/></g>
<g><path style="opacity:1" fill="#ea3538" d="M 116.5,440.5 C 117.209,439.596 118.209,439.263 119.5,439.5C 120.167,439.5 120.833,439.5 121.5,439.5C 132.089,441.423 137.089,447.756 136.5,458.5C 128.917,460.751 121.25,462.751 113.5,464.5C 112.638,459.187 112.471,453.854 113,448.5C 113.763,445.53 115.263,443.03 117.5,441C 117.272,440.601 116.938,440.435 116.5,440.5 Z"/></g>
<g><path style="opacity:1" fill="#4a438f" d="M 116.5,440.5 C 116.938,440.435 117.272,440.601 117.5,441C 115.263,443.03 113.763,445.53 113,448.5C 112.471,453.854 112.638,459.187 113.5,464.5C 108.654,466.039 103.654,466.706 98.5,466.5C 99.0514,454.064 105.051,445.398 116.5,440.5 Z"/></g>
<g><path style="opacity:1" fill="#f2902d" d="M 175.5,446.5 C 178.167,446.5 180.833,446.5 183.5,446.5C 183.5,447.5 183.5,448.5 183.5,449.5C 178.914,449.396 174.581,450.396 170.5,452.5C 169.5,452.167 168.5,451.833 167.5,451.5C 170.161,449.834 172.828,448.167 175.5,446.5 Z"/></g>
<g><path style="opacity:1" fill="#43a1d6" d="M 502.5,443.5 C 504.176,444.183 504.843,445.517 504.5,447.5C 506.288,447.215 507.955,447.548 509.5,448.5C 508.263,449.281 507.263,450.281 506.5,451.5C 507.645,452.891 507.645,454.224 506.5,455.5C 504.5,452.833 502.5,452.833 500.5,455.5C 499.355,454.224 499.355,452.891 500.5,451.5C 499.737,450.281 498.737,449.281 497.5,448.5C 500.785,448.302 502.452,446.635 502.5,443.5 Z"/></g>
<g><path style="opacity:1" fill="#373532" d="M 522.5,443.5 C 524.176,444.183 524.843,445.517 524.5,447.5C 526.288,447.215 527.955,447.548 529.5,448.5C 528.263,449.281 527.263,450.281 526.5,451.5C 527.428,452.768 527.595,454.101 527,455.5C 524.577,453.006 522.244,453.006 520,455.5C 519.405,454.101 519.572,452.768 520.5,451.5C 519.737,450.281 518.737,449.281 517.5,448.5C 519.045,447.548 520.712,447.215 522.5,447.5C 522.5,446.167 522.5,444.833 522.5,443.5 Z"/></g>
<g><path style="opacity:1" fill="#db2e2c" d="M 483.5,443.5 C 484.434,444.568 484.768,445.901 484.5,447.5C 486.527,447.338 488.527,447.505 490.5,448C 488.939,448.941 487.605,450.108 486.5,451.5C 487.428,452.768 487.595,454.101 487,455.5C 484.727,453.108 482.56,453.108 480.5,455.5C 481.226,452.537 480.226,450.037 477.5,448C 479.134,447.506 480.801,447.34 482.5,447.5C 482.433,446.041 482.766,444.708 483.5,443.5 Z"/></g>
<g><path style="opacity:1" fill="#f1d82b" d="M 136.5,458.5 C 142.711,460.101 149.044,460.768 155.5,460.5C 152.911,475.26 144.244,484.427 129.5,488C 112.816,491.118 102.149,484.618 97.5,468.5C 97.5427,467.584 97.8761,466.917 98.5,466.5C 103.654,466.706 108.654,466.039 113.5,464.5C 121.25,462.751 128.917,460.751 136.5,458.5 Z"/></g>
<g><path style="opacity:1" fill="#443f34" d="M 132.5,461.5 C 138.263,461.783 139.93,464.616 137.5,470C 134.394,470.844 131.561,470.344 129,468.5C 125.964,470.276 123.131,472.276 120.5,474.5C 115.416,472.974 114.416,470.141 117.5,466C 120.606,465.156 123.439,465.656 126,467.5C 128.814,466.21 130.981,464.21 132.5,461.5 Z"/></g>
<g><path style="opacity:1" fill="#f28e2e" d="M 84.5,471.5 C 86.5,471.5 88.5,471.5 90.5,471.5C 90.5,472.5 90.5,473.5 90.5,474.5C 86.1131,474.611 81.9464,475.611 78,477.5C 77.1667,477.167 76.3333,476.833 75.5,476.5C 78.3661,474.568 81.3661,472.901 84.5,471.5 Z"/></g>
<g><path style="opacity:1" fill="#1f1f1e" d="M 519.5,482.5 C 518.957,482.56 518.624,482.893 518.5,483.5C 519.833,484.167 521.167,484.833 522.5,485.5C 519.355,486.803 516.355,486.803 513.5,485.5C 514.793,483.704 516.293,482.037 518,480.5C 518.494,478.866 518.66,477.199 518.5,475.5C 516.833,475.5 515.167,475.5 513.5,475.5C 513.5,474.5 513.5,473.5 513.5,472.5C 521.56,472.191 523.56,475.524 519.5,482.5 Z"/></g>
<g><path style="opacity:1" fill="#ee5c32" d="M 138.5,471.5 C 139.497,471.47 140.164,471.97 140.5,473C 136.391,481.384 129.724,484.384 120.5,482C 118.714,481.804 117.381,480.971 116.5,479.5C 117.79,478.592 119.123,478.759 120.5,480C 128.754,481.704 134.754,478.871 138.5,471.5 Z"/></g>
<g><path style="opacity:1" fill="#636362" d="M 540.5,476.5 C 541.166,479.689 541.833,483.023 542.5,486.5C 543.492,482.217 543.826,477.884 543.5,473.5C 540.966,473.259 539.3,474.259 538.5,476.5C 537.224,475.614 537.224,474.614 538.5,473.5C 540.409,472.652 542.409,472.318 544.5,472.5C 544.5,477.5 544.5,482.5 544.5,487.5C 543.167,487.5 541.833,487.5 540.5,487.5C 540.5,483.833 540.5,480.167 540.5,476.5 Z"/></g>
<g><path style="opacity:1" fill="#10100f" d="M 540.5,476.5 C 539.833,476.5 539.167,476.5 538.5,476.5C 539.3,474.259 540.966,473.259 543.5,473.5C 543.826,477.884 543.492,482.217 542.5,486.5C 541.833,483.023 541.166,479.689 540.5,476.5 Z"/></g>
<g><path style="opacity:1" fill="#212120" d="M 468.5,482.5 C 467.624,482.369 466.957,482.702 466.5,483.5C 467.833,484.167 469.167,484.833 470.5,485.5C 467.355,486.803 464.355,486.803 461.5,485.5C 462.793,483.704 464.293,482.037 466,480.5C 466.494,478.866 466.66,477.199 466.5,475.5C 464.833,475.5 463.167,475.5 461.5,475.5C 461.5,474.5 461.5,473.5 461.5,472.5C 468.914,472.005 471.247,475.339 468.5,482.5 Z"/></g>
<g><path style="opacity:1" fill="#2a2a29" d="M 489.5,472.5 C 496.649,472.642 499.149,476.308 497,483.5C 493.115,489.058 489.782,488.724 487,482.5C 485.861,478.579 486.695,475.246 489.5,472.5 Z"/></g>
<g><path style="opacity:1" fill="#dededd" d="M 490.5,475.5 C 493.488,475.155 494.821,476.488 494.5,479.5C 494.798,482.603 493.465,484.27 490.5,484.5C 490.5,481.5 490.5,478.5 490.5,475.5 Z"/></g>
<g><path style="opacity:1" fill="#f28c2f" d="M 153.5,474.5 C 162.359,476.685 170.025,481.018 176.5,487.5C 175.635,488.583 174.635,488.749 173.5,488C 167.609,483.887 161.276,480.554 154.5,478C 153.663,476.989 153.33,475.822 153.5,474.5 Z"/></g>
<g><path style="opacity:1" fill="#787877" d="M 468.5,482.5 C 469.209,483.404 470.209,483.737 471.5,483.5C 471.5,484.833 471.5,486.167 471.5,487.5C 467.774,487.823 464.107,487.489 460.5,486.5C 460.624,485.893 460.957,485.56 461.5,485.5C 460.957,485.56 460.624,485.893 460.5,486.5C 464.107,487.489 467.774,487.823 471.5,487.5C 471.5,486.167 471.5,484.833 471.5,483.5C 470.209,483.737 469.209,483.404 468.5,482.5 Z"/></g>
<g><path style="opacity:1" fill="#787877" d="M 519.5,482.5 C 520.568,483.434 521.901,483.768 523.5,483.5C 523.5,484.833 523.5,486.167 523.5,487.5C 519.774,487.823 516.107,487.489 512.5,486.5C 512.624,485.893 512.957,485.56 513.5,485.5C 516.355,486.803 519.355,486.803 522.5,485.5C 521.167,484.833 519.833,484.167 518.5,483.5C 518.624,482.893 518.957,482.56 519.5,482.5 Z"/></g>
<g><path style="opacity:1" fill="#f38930" d="M 131.5,489.5 C 132.496,489.414 133.329,489.748 134,490.5C 137.579,497.761 138.413,505.428 136.5,513.5C 136.067,505.213 134.401,497.213 131.5,489.5 Z"/></g>
<g><path style="opacity:1" fill="#f28d2f" d="M 104.5,490.5 C 105.675,490.281 106.675,490.614 107.5,491.5C 103.979,495.213 101.479,499.547 100,504.5C 96.8904,507.14 93.3904,508.806 89.5,509.5C 89.281,508.325 89.6143,507.325 90.5,506.5C 96.3312,504.504 99.8312,500.504 101,494.5C 102.376,493.295 103.542,491.962 104.5,490.5 Z"/></g>
<g><path style="opacity:1" fill="#56aada" d="M 618.5,504.5 C 626.459,505.08 628.626,509.08 625,516.5C 622.934,519.132 620.434,519.799 617.5,518.5C 619.287,517.684 620.954,516.684 622.5,515.5C 616.245,513.651 614.911,509.984 618.5,504.5 Z"/></g>
<g><path style="opacity:1" fill="#4ca6d8" d="M 455.5,504.5 C 460.445,503.311 463.778,504.977 465.5,509.5C 464.508,513.67 461.841,515.337 457.5,514.5C 457.785,516.288 457.452,517.955 456.5,519.5C 455.506,514.544 455.173,509.544 455.5,504.5 Z"/></g>
<g><path style="opacity:1" fill="#9dcfe9" d="M 610.5,505.5 C 611.209,504.596 612.209,504.263 613.5,504.5C 613.5,509.833 613.5,515.167 613.5,520.5C 612.209,520.737 611.209,520.404 610.5,519.5C 611.805,517.603 612.471,515.269 612.5,512.5C 612.471,509.731 611.805,507.397 610.5,505.5 Z"/></g>
<g><path style="opacity:1" fill="#4ea6d9" d="M 444.5,504.5 C 446.833,504.5 449.167,504.5 451.5,504.5C 451.719,505.675 451.386,506.675 450.5,507.5C 448.929,506.691 447.262,506.357 445.5,506.5C 445.5,507.833 445.5,509.167 445.5,510.5C 447.963,510.781 450.13,511.781 452,513.5C 452.825,515.701 452.325,517.534 450.5,519C 447.854,519.497 445.187,519.664 442.5,519.5C 442.351,518.448 442.517,517.448 443,516.5C 445.041,517.423 447.208,517.756 449.5,517.5C 449.649,516.448 449.483,515.448 449,514.5C 442.774,513.061 441.274,509.728 444.5,504.5 Z"/></g>
<g><path style="opacity:1" fill="#f0f5f4" d="M 458.5,507.5 C 459.833,507.5 461.167,507.5 462.5,507.5C 462.5,508.833 462.5,510.167 462.5,511.5C 461.167,511.5 459.833,511.5 458.5,511.5C 458.5,510.167 458.5,508.833 458.5,507.5 Z"/></g>
<g><path style="opacity:1" fill="#4fa6da" d="M 566.5,504.5 C 567.675,504.281 568.675,504.614 569.5,505.5C 570.21,508.673 571.377,511.673 573,514.5C 574.21,510.913 575.71,507.58 577.5,504.5C 577.833,505 578.167,505.5 578.5,506C 576.856,510.429 575.523,514.929 574.5,519.5C 573.325,519.719 572.325,519.386 571.5,518.5C 570.135,513.697 568.469,509.031 566.5,504.5 Z"/></g>
<g><path style="opacity:1" fill="#6fb5de" d="M 581.5,504.5 C 582.5,504.5 583.5,504.5 584.5,504.5C 584.5,509.5 584.5,514.5 584.5,519.5C 583.5,519.5 582.5,519.5 581.5,519.5C 581.5,514.5 581.5,509.5 581.5,504.5 Z"/></g>
<g><path style="opacity:1" fill="#389ed5" d="M 610.5,505.5 C 611.805,507.397 612.471,509.731 612.5,512.5C 612.471,515.269 611.805,517.603 610.5,519.5C 610.5,515.5 610.5,511.5 610.5,507.5C 606.5,506.833 606.5,506.167 610.5,505.5 Z"/></g>
<g><path style="opacity:1" fill="#dbebef" d="M 619.5,506.5 C 623.068,506.759 624.401,508.759 623.5,512.5C 622.167,512.5 620.833,512.5 619.5,512.5C 619.5,510.5 619.5,508.5 619.5,506.5 Z"/></g>
<g><path style="opacity:1" fill="#57abdb" d="M 430.5,504.5 C 433.833,504.5 437.167,504.5 440.5,504.5C 440.5,505.5 440.5,506.5 440.5,507.5C 438.167,507.5 435.833,507.5 433.5,507.5C 433.5,508.5 433.5,509.5 433.5,510.5C 435.5,510.5 437.5,510.5 439.5,510.5C 439.5,511.5 439.5,512.5 439.5,513.5C 437.5,513.5 435.5,513.5 433.5,513.5C 433.5,514.833 433.5,516.167 433.5,517.5C 435.924,517.192 438.257,517.526 440.5,518.5C 437.232,519.487 433.898,519.82 430.5,519.5C 430.5,514.5 430.5,509.5 430.5,504.5 Z"/></g>
<g><path style="opacity:1" fill="#56a9db" d="M 492.5,504.5 C 496.5,504.5 500.5,504.5 504.5,504.5C 504.5,505.5 504.5,506.5 504.5,507.5C 502.833,507.5 501.167,507.5 499.5,507.5C 499.5,511.5 499.5,515.5 499.5,519.5C 498.5,519.5 497.5,519.5 496.5,519.5C 496.5,515.5 496.5,511.5 496.5,507.5C 495.167,507.5 493.833,507.5 492.5,507.5C 492.5,506.5 492.5,505.5 492.5,504.5 Z"/></g>
<g><path style="opacity:1" fill="#52a7da" d="M 483.5,504.5 C 485.857,504.337 488.19,504.503 490.5,505C 490.957,505.414 491.291,505.914 491.5,506.5C 489.257,507.474 486.924,507.808 484.5,507.5C 484.809,510.346 486.475,511.846 489.5,512C 492.167,514.333 492.167,516.667 489.5,519C 487.098,519.814 484.765,519.647 482.5,518.5C 484.396,517.534 486.396,517.201 488.5,517.5C 488.649,516.448 488.483,515.448 488,514.5C 481.869,512.945 480.369,509.611 483.5,504.5 Z"/></g>
<g><path style="opacity:1" fill="#4fa7da" d="M 544.5,504.5 C 546.833,504.5 549.167,504.5 551.5,504.5C 551.5,505.5 551.5,506.5 551.5,507.5C 544.935,506.422 542.768,509.089 545,515.5C 546.6,516.866 548.433,517.866 550.5,518.5C 544.175,520.359 541.175,517.859 541.5,511C 541.391,508.288 542.391,506.122 544.5,504.5 Z"/></g>
<g><path style="opacity:1" fill="#4ca5d8" d="M 417.5,504.5 C 420.247,504.187 422.914,504.52 425.5,505.5C 428.092,508.314 428.092,511.147 425.5,514C 426.167,515.333 426.833,516.667 427.5,518C 427.167,518.5 426.833,519 426.5,519.5C 424.363,518.262 423.029,516.429 422.5,514C 421.552,513.517 420.552,513.351 419.5,513.5C 419.799,515.604 419.466,517.604 418.5,519.5C 417.506,514.544 417.173,509.544 417.5,504.5 Z"/></g>
<g><path style="opacity:1" fill="#ebf3f3" d="M 420.5,507.5 C 421.833,507.5 423.167,507.5 424.5,507.5C 424.5,508.833 424.5,510.167 424.5,511.5C 423.167,511.5 421.833,511.5 420.5,511.5C 420.5,510.167 420.5,508.833 420.5,507.5 Z"/></g>
<g><path style="opacity:1" fill="#4ba5d7" d="M 508.5,504.5 C 510.124,504.36 511.29,505.027 512,506.5C 513.566,509.866 514.733,513.366 515.5,517C 514.566,520.154 513.899,519.988 513.5,516.5C 510.028,515.963 507.195,516.963 505,519.5C 505.025,514.254 506.191,509.254 508.5,504.5 Z"/></g>
<g><path style="opacity:1" fill="#cbe4ee" d="M 509.5,508.5 C 511.074,510.102 511.741,512.102 511.5,514.5C 510.022,514.762 508.689,514.429 507.5,513.5C 508.174,511.805 508.841,510.138 509.5,508.5 Z"/></g>
<g><path style="opacity:1" fill="#4ea9d9" d="M 601.5,512.5 C 603.288,512.215 604.955,512.548 606.5,513.5C 605.667,513.833 604.833,514.167 604,514.5C 602.624,514.316 601.791,513.649 601.5,512.5 Z"/></g>
<g><path style="opacity:1" fill="#5babda" d="M 525.5,502.5 C 526.568,501.566 527.901,501.232 529.5,501.5C 530.754,506.931 532.421,512.264 534.5,517.5C 533.575,519.849 532.575,519.683 531.5,517C 528.107,515.832 525.441,516.666 523.5,519.5C 523.539,514.346 524.873,509.346 527.5,504.5C 527.145,503.478 526.478,502.811 525.5,502.5 Z"/></g>
<g><path style="opacity:1" fill="#43a2d8" d="M 394.5,504.5 C 395.822,504.33 396.989,504.663 398,505.5C 399.171,507.842 400.338,510.176 401.5,512.5C 402.662,510.176 403.829,507.842 405,505.5C 406.011,504.663 407.178,504.33 408.5,504.5C 408.827,509.544 408.494,514.544 407.5,519.5C 406.676,516.215 406.176,512.882 406,509.5C 404.36,511.579 403.194,513.912 402.5,516.5C 401.675,517.386 400.675,517.719 399.5,517.5C 399.565,514.529 398.731,511.862 397,509.5C 396.824,512.882 396.324,516.215 395.5,519.5C 394.506,514.544 394.173,509.544 394.5,504.5 Z"/></g>
<g><path style="opacity:1" fill="#47a3d7" d="M 556.5,504.5 C 564.877,504.394 567.71,508.394 565,516.5C 562.441,519.349 559.274,520.183 555.5,519C 552.575,513.85 552.908,509.017 556.5,504.5 Z"/></g>
<g><path style="opacity:1" fill="#eef5f7" d="M 556.5,507.5 C 562.204,507.146 564.037,509.813 562,515.5C 560.084,518.033 558.084,518.033 556,515.5C 555.278,512.739 555.445,510.073 556.5,507.5 Z"/></g>
<g><path style="opacity:1" fill="#4ca6d8" d="M 470.5,504.5 C 473.97,503.875 476.804,504.875 479,507.5C 479.762,511.332 479.262,514.998 477.5,518.5C 468.704,520.19 465.537,516.523 468,507.5C 469.045,506.627 469.878,505.627 470.5,504.5 Z"/></g>
<g><path style="opacity:1" fill="#ecf4f5" d="M 470.5,507.5 C 477.641,507.62 479.308,510.787 475.5,517C 473.888,517.72 472.388,517.554 471,516.5C 470.502,513.518 470.335,510.518 470.5,507.5 Z"/></g>
<g><path style="opacity:1" fill="#51a8db" d="M 381.5,504.5 C 384.833,504.5 388.167,504.5 391.5,504.5C 391.5,505.5 391.5,506.5 391.5,507.5C 389.167,507.5 386.833,507.5 384.5,507.5C 384.5,508.5 384.5,509.5 384.5,510.5C 386.5,510.5 388.5,510.5 390.5,510.5C 390.5,511.5 390.5,512.5 390.5,513.5C 388.167,513.5 385.833,513.5 383.5,513.5C 383.5,514.833 383.5,516.167 383.5,517.5C 385.924,517.192 388.257,517.526 390.5,518.5C 387.572,519.484 384.572,519.817 381.5,519.5C 381.5,514.5 381.5,509.5 381.5,504.5 Z"/></g>
<g><path style="opacity:1" fill="#4ca6d9" d="M 587.5,504.5 C 596.307,503.968 599.807,507.968 598,516.5C 595.103,519.231 591.603,520.231 587.5,519.5C 587.5,514.5 587.5,509.5 587.5,504.5 Z"/></g>
<g><path style="opacity:1" fill="#eaf3f7" d="M 590.5,507.5 C 596.715,508.17 598.048,511.17 594.5,516.5C 593.264,517.246 591.93,517.579 590.5,517.5C 590.5,514.167 590.5,510.833 590.5,507.5 Z"/></g>
<g><path style="opacity:1" fill="#afaeae" d="M 392.5,543.5 C 386.31,543.177 380.31,543.51 374.5,544.5C 373.957,544.44 373.624,544.107 373.5,543.5C 379.988,542.183 386.322,542.183 392.5,543.5 Z"/></g>
<g><path style="opacity:1" fill="#343132" d="M 374.5,544.5 C 380.31,543.51 386.31,543.177 392.5,543.5C 392.817,546.572 392.484,549.572 391.5,552.5C 390.123,550.711 389.123,548.711 388.5,546.5C 386.955,545.548 385.288,545.215 383.5,545.5C 383.5,549.5 383.5,553.5 383.5,557.5C 385.981,557.677 387.814,556.677 389,554.5C 389.667,557.5 389.667,560.5 389,563.5C 388.313,560.574 386.48,559.241 383.5,559.5C 383.5,563.833 383.5,568.167 383.5,572.5C 384.5,572.5 385.5,572.5 386.5,572.5C 382.5,573.833 378.5,573.833 374.5,572.5C 375.827,568.217 376.493,563.551 376.5,558.5C 376.493,553.449 375.827,548.783 374.5,544.5 Z"/></g>
<g><path style="opacity:1" fill="#2a2627" d="M 566.5,572.5 C 562.702,573.483 558.702,573.817 554.5,573.5C 554.842,572.662 555.508,572.328 556.5,572.5C 557.166,568.012 557.499,563.346 557.5,558.5C 557.493,553.449 556.827,548.783 555.5,544.5C 559.741,543.355 564.741,543.188 570.5,544C 575.738,547.274 576.904,551.774 574,557.5C 571.303,560.87 567.803,562.204 563.5,561.5C 563.5,565.167 563.5,568.833 563.5,572.5C 564.5,572.5 565.5,572.5 566.5,572.5 Z"/></g>
<g><path style="opacity:1" fill="#7f7d7d" d="M 425.5,548.5 C 422.5,547.167 419.5,547.167 416.5,548.5C 415.957,548.44 415.624,548.107 415.5,547.5C 419.167,546.167 422.833,546.167 426.5,547.5C 426.376,548.107 426.043,548.44 425.5,548.5 Z"/></g>
<g><path style="opacity:1" fill="#343131" d="M 546.5,560.5 C 546.747,563.939 546.414,567.272 545.5,570.5C 541.236,574.111 536.236,575.445 530.5,574.5C 530.183,571.428 530.516,568.428 531.5,565.5C 532.768,567.304 533.435,569.304 533.5,571.5C 535.857,571.663 538.19,571.497 540.5,571C 541.576,569.274 541.743,567.441 541,565.5C 538,562.833 535,560.167 532,557.5C 528.714,545.778 533.214,540.945 545.5,543C 546.783,545.795 546.783,548.628 545.5,551.5C 543.717,549.977 543.051,547.977 543.5,545.5C 541.167,545.5 538.833,545.5 536.5,545.5C 536.338,547.527 536.505,549.527 537,551.5C 540.694,554.029 543.86,557.029 546.5,560.5 Z"/></g>
<g><path style="opacity:1" fill="#adabac" d="M 555.5,544.5 C 556.827,548.783 557.493,553.449 557.5,558.5C 557.499,563.346 557.166,568.012 556.5,572.5C 556.805,563.083 556.472,553.75 555.5,544.5 Z"/></g>
<g><path style="opacity:1" fill="#adacac" d="M 567.5,556.5 C 567.665,553.482 567.498,550.482 567,547.5C 566.586,547.043 566.086,546.709 565.5,546.5C 565.167,548.5 564.833,550.5 564.5,552.5C 564.539,554.952 565.206,556.952 566.5,558.5C 565.791,559.404 564.791,559.737 563.5,559.5C 563.5,554.833 563.5,550.167 563.5,545.5C 565.144,545.286 566.644,545.62 568,546.5C 568.808,550.027 568.641,553.36 567.5,556.5 Z"/></g>
<g><path style="opacity:1" fill="#f9f8f8" d="M 567.5,556.5 C 567.672,557.492 567.338,558.158 566.5,558.5C 565.206,556.952 564.539,554.952 564.5,552.5C 564.833,550.5 565.167,548.5 565.5,546.5C 566.086,546.709 566.586,547.043 567,547.5C 567.498,550.482 567.665,553.482 567.5,556.5 Z"/></g>
<g><path style="opacity:1" fill="#272324" d="M 416.5,548.5 C 419.5,547.167 422.5,547.167 425.5,548.5C 425.167,548.5 424.833,548.5 424.5,548.5C 423.508,556.316 423.174,564.316 423.5,572.5C 425.415,572.784 427.081,572.451 428.5,571.5C 428.433,570.041 428.766,568.708 429.5,567.5C 430.461,569.265 430.795,571.265 430.5,573.5C 425.637,573.819 420.97,573.486 416.5,572.5C 417.824,568.893 418.491,564.893 418.5,560.5C 418.491,556.107 417.824,552.107 416.5,548.5 Z"/></g>
<g><path style="opacity:1" fill="#363233" d="M 445.5,572.5 C 446.482,569.038 446.815,565.371 446.5,561.5C 444.265,561.205 442.265,561.539 440.5,562.5C 440.021,566.434 440.688,570.101 442.5,573.5C 439.167,574.833 435.833,574.833 432.5,573.5C 433.769,569.351 434.435,565.018 434.5,560.5C 434.435,555.982 433.769,551.649 432.5,547.5C 435.833,546.167 439.167,546.167 442.5,547.5C 440.669,551.241 440.003,555.241 440.5,559.5C 442.5,559.5 444.5,559.5 446.5,559.5C 446.997,555.241 446.331,551.241 444.5,547.5C 447.833,546.167 451.167,546.167 454.5,547.5C 453.231,551.649 452.565,555.982 452.5,560.5C 452.565,565.018 453.231,569.351 454.5,573.5C 451.167,574.833 447.833,574.833 444.5,573.5C 444.624,572.893 444.957,572.56 445.5,572.5 Z"/></g>
<g><path style="opacity:1" fill="#302c2d" d="M 504.5,548.5 C 509.305,547.513 514.305,547.179 519.5,547.5C 519.663,549.857 519.497,552.19 519,554.5C 518.243,552.685 517.41,551.019 516.5,549.5C 515.432,548.566 514.099,548.232 512.5,548.5C 512.5,552.167 512.5,555.833 512.5,559.5C 513.5,559.5 514.5,559.5 515.5,559.5C 515.263,558.209 515.596,557.209 516.5,556.5C 517.634,558.966 517.801,561.633 517,564.5C 516.617,563.944 516.117,563.611 515.5,563.5C 515.179,561.952 514.179,561.285 512.5,561.5C 511.518,564.962 511.185,568.629 511.5,572.5C 513.833,572.5 516.167,572.5 518.5,572.5C 518.5,571.167 518.5,569.833 518.5,568.5C 518.328,567.508 518.662,566.842 519.5,566.5C 520.468,568.607 520.802,570.941 520.5,573.5C 514.974,573.821 509.64,573.488 504.5,572.5C 505.824,568.893 506.491,564.893 506.5,560.5C 506.491,556.107 505.824,552.107 504.5,548.5 Z"/></g>
<g><path style="opacity:1" fill="#383536" d="M 580.5,546.5 C 582.144,546.286 583.644,546.62 585,547.5C 587.135,555.57 589.468,563.57 592,571.5C 592.925,572.047 593.758,572.713 594.5,573.5C 590.833,574.833 587.167,574.833 583.5,573.5C 585.279,571.807 585.779,569.807 585,567.5C 579.328,563.84 576.495,565.506 576.5,572.5C 580.444,573.274 580.277,573.941 576,574.5C 574.833,574.167 573.667,573.833 572.5,573.5C 573.522,572.646 574.355,571.646 575,570.5C 576.839,562.48 578.672,554.48 580.5,546.5 Z"/></g>
<g><path style="opacity:1" fill="#383536" d="M 602.5,572.5 C 603.5,573.167 604.5,573.833 605.5,574.5C 602.813,574.664 600.146,574.497 597.5,574C 596.107,572.829 595.273,571.329 595,569.5C 595.086,561.966 594.252,554.632 592.5,547.5C 596.167,546.167 599.833,546.167 603.5,547.5C 602.675,548.386 601.675,548.719 600.5,548.5C 600.334,556.174 600.5,563.841 601,571.5C 601.383,572.056 601.883,572.389 602.5,572.5 Z"/></g>
<g><path style="opacity:1" fill="#282425" d="M 622.5,548.5 C 621.508,556.316 621.174,564.316 621.5,572.5C 623.099,572.768 624.432,572.434 625.5,571.5C 625.66,569.847 626.326,568.514 627.5,567.5C 628.461,569.265 628.795,571.265 628.5,573.5C 623.637,573.819 618.97,573.486 614.5,572.5C 614.833,572.5 615.167,572.5 615.5,572.5C 616.166,568.681 616.499,564.681 616.5,560.5C 616.463,556.075 615.796,551.909 614.5,548C 617.367,547.199 620.034,547.366 622.5,548.5 Z"/></g>
<g><path style="opacity:1" fill="#373334" d="M 399.5,546.5 C 406.489,544.77 411.323,547.103 414,553.5C 415.221,559.836 414.387,565.836 411.5,571.5C 407.156,574.793 402.489,575.293 397.5,573C 391.53,563.476 392.197,554.643 399.5,546.5 Z"/></g>
<g><path style="opacity:1" fill="#3a3637" d="M 463.5,546.5 C 465.144,546.286 466.644,546.62 468,547.5C 470.639,555.723 472.806,564.056 474.5,572.5C 475.675,572.281 476.675,572.614 477.5,573.5C 473.833,574.833 470.167,574.833 466.5,573.5C 467.415,572.672 468.081,571.672 468.5,570.5C 467.954,568.865 467.62,567.199 467.5,565.5C 465.167,565.5 462.833,565.5 460.5,565.5C 460.007,567.806 459.674,570.139 459.5,572.5C 463.444,573.274 463.277,573.941 459,574.5C 457.833,574.167 456.667,573.833 455.5,573.5C 459.245,564.862 461.911,555.862 463.5,546.5 Z"/></g>
<g><path style="opacity:1" fill="#332f30" d="M 635.5,546.5 C 641.386,545.343 646.219,547.01 650,551.5C 650.667,557.167 650.667,562.833 650,568.5C 646.723,574.109 641.89,575.942 635.5,574C 633.622,572.457 632.122,570.624 631,568.5C 630.333,563.167 630.333,557.833 631,552.5C 632.332,550.34 633.832,548.34 635.5,546.5 Z"/></g>
<g><path style="opacity:1" fill="#f3f2f2" d="M 401.5,548.5 C 403.467,548.261 405.301,548.594 407,549.5C 409.117,556.898 408.951,564.231 406.5,571.5C 404.955,572.452 403.288,572.785 401.5,572.5C 400.2,564.487 400.2,556.487 401.5,548.5 Z"/></g>
<g><path style="opacity:1" fill="#9e9b9c" d="M 424.5,548.5 C 424.5,556.167 424.5,563.833 424.5,571.5C 425.833,571.5 427.167,571.5 428.5,571.5C 427.081,572.451 425.415,572.784 423.5,572.5C 423.174,564.316 423.508,556.316 424.5,548.5 Z"/></g>
<g><path style="opacity:1" fill="#353232" d="M 483.5,546.5 C 500.556,543.722 507.056,550.722 503,567.5C 500.422,572.958 496.088,575.291 490,574.5C 487.833,574.167 485.667,573.833 483.5,573.5C 484.769,569.351 485.435,565.018 485.5,560.5C 485.38,555.658 484.713,550.991 483.5,546.5 Z"/></g>
<g><path style="opacity:1" fill="#f7f7f7" d="M 494.5,549.5 C 495.15,549.804 495.817,550.137 496.5,550.5C 497.664,557.142 497.831,563.808 497,570.5C 496.617,571.056 496.117,571.389 495.5,571.5C 494.5,571.5 493.5,571.5 492.5,571.5C 491.87,563.757 492.537,556.424 494.5,549.5 Z"/></g>
<g><path style="opacity:1" fill="#a4a3a4" d="M 494.5,549.5 C 492.537,556.424 491.87,563.757 492.5,571.5C 493.5,571.5 494.5,571.5 495.5,571.5C 494.432,572.434 493.099,572.768 491.5,572.5C 491.5,564.5 491.5,556.5 491.5,548.5C 492.791,548.263 493.791,548.596 494.5,549.5 Z"/></g>
<g><path style="opacity:1" fill="#f2f2f2" d="M 516.5,549.5 C 517.067,551.969 517.067,554.302 516.5,556.5C 515.596,557.209 515.263,558.209 515.5,559.5C 514.5,559.5 513.5,559.5 512.5,559.5C 512.5,555.833 512.5,552.167 512.5,548.5C 514.099,548.232 515.432,548.566 516.5,549.5 Z"/></g>
<g><path style="opacity:1" fill="#4d494a" d="M 612.5,546.5 C 610.647,553.964 609.98,561.631 610.5,569.5C 609.833,572.167 608.167,573.833 605.5,574.5C 604.5,573.833 603.5,573.167 602.5,572.5C 604.722,572.822 606.556,572.155 608,570.5C 608.167,566.833 608.333,563.167 608.5,559.5C 608.429,555.313 607.762,551.313 606.5,547.5C 608.396,546.534 610.396,546.201 612.5,546.5 Z"/></g>
<g><path style="opacity:1" fill="#f3f3f3" d="M 638.5,548.5 C 640.722,548.178 642.556,548.845 644,550.5C 644.667,556.833 644.667,563.167 644,569.5C 642.776,572.473 640.776,573.14 638,571.5C 636.449,564.582 636.116,557.582 637,550.5C 637.717,549.956 638.217,549.289 638.5,548.5 Z"/></g>
<g><path style="opacity:1" fill="#a9a7a8" d="M 612.5,546.5 C 616.555,546.176 620.555,546.509 624.5,547.5C 624.043,548.298 623.376,548.631 622.5,548.5C 620.034,547.366 617.367,547.199 614.5,548C 615.796,551.909 616.463,556.075 616.5,560.5C 616.499,564.681 616.166,568.681 615.5,572.5C 615.5,564.833 615.5,557.167 615.5,549.5C 614.167,549.5 612.833,549.5 611.5,549.5C 611.824,556.354 611.491,563.021 610.5,569.5C 609.98,561.631 610.647,553.964 612.5,546.5 Z"/></g>
<g><path style="opacity:1" fill="#aeacad" d="M 622.5,548.5 C 622.5,556.167 622.5,563.833 622.5,571.5C 623.5,571.5 624.5,571.5 625.5,571.5C 624.432,572.434 623.099,572.768 621.5,572.5C 621.174,564.316 621.508,556.316 622.5,548.5 Z"/></g>
<g><path style="opacity:1" fill="#aaa8a9" d="M 515.5,563.5 C 516.117,563.611 516.617,563.944 517,564.5C 517.801,561.633 517.634,558.966 516.5,556.5C 517.067,554.302 517.067,551.969 516.5,549.5C 517.41,551.019 518.243,552.685 519,554.5C 519.497,552.19 519.663,549.857 519.5,547.5C 514.305,547.179 509.305,547.513 504.5,548.5C 503.957,548.44 503.624,548.107 503.5,547.5C 509.128,546.505 514.794,546.171 520.5,546.5C 519.704,552.817 519.037,559.15 518.5,565.5C 516.821,565.715 515.821,565.048 515.5,563.5 Z"/></g>
<g><path style="opacity:1" fill="#e6e6e6" d="M 462.5,557.5 C 464.216,558.574 465.216,560.241 465.5,562.5C 464.675,563.386 463.675,563.719 462.5,563.5C 462.5,561.5 462.5,559.5 462.5,557.5 Z"/></g>
<g><path style="opacity:1" fill="#d5d4d4" d="M 580.5,556.5 C 581.612,558.599 582.279,560.933 582.5,563.5C 581.5,563.5 580.5,563.5 579.5,563.5C 579.298,561.05 579.631,558.717 580.5,556.5 Z"/></g>
<g><path style="opacity:1" fill="#adacac" d="M 440.5,562.5 C 442.265,561.539 444.265,561.205 446.5,561.5C 446.815,565.371 446.482,569.038 445.5,572.5C 445.5,569.167 445.5,565.833 445.5,562.5C 443.833,562.5 442.167,562.5 440.5,562.5 Z"/></g>
<g><path style="opacity:1" fill="#777475" d="M 512.5,561.5 C 512.5,564.833 512.5,568.167 512.5,571.5C 514.167,571.5 515.833,571.5 517.5,571.5C 517.263,570.209 517.596,569.209 518.5,568.5C 518.5,569.833 518.5,571.167 518.5,572.5C 516.167,572.5 513.833,572.5 511.5,572.5C 511.185,568.629 511.518,564.962 512.5,561.5 Z"/></g>
<g><path style="opacity:1" fill="#a8a6a7" d="M 546.5,560.5 C 547.473,562.948 547.806,565.615 547.5,568.5C 549.781,568.077 551.448,568.744 552.5,570.5C 550.958,569.699 549.292,569.366 547.5,569.5C 547.5,570.833 547.5,572.167 547.5,573.5C 546.833,572.5 546.167,571.5 545.5,570.5C 546.414,567.272 546.747,563.939 546.5,560.5 Z"/></g>
<g><path style="opacity:1" fill="#353132" d="M 552.5,570.5 C 552.343,574.273 550.676,575.273 547.5,573.5C 547.5,572.167 547.5,570.833 547.5,569.5C 549.292,569.366 550.958,569.699 552.5,570.5 Z"/></g>
<g><path style="opacity:1" fill="#7e7b7c" d="M 374.5,572.5 C 378.5,573.833 382.5,573.833 386.5,572.5C 387.043,572.56 387.376,572.893 387.5,573.5C 382.833,574.833 378.167,574.833 373.5,573.5C 373.624,572.893 373.957,572.56 374.5,572.5 Z"/></g>
<g><path style="opacity:1" fill="#6f6c6d" d="M 416.5,572.5 C 420.97,573.486 425.637,573.819 430.5,573.5C 430.795,571.265 430.461,569.265 429.5,567.5C 429.369,566.624 429.702,565.957 430.5,565.5C 431.484,568.428 431.817,571.428 431.5,574.5C 426.125,574.828 420.792,574.495 415.5,573.5C 415.624,572.893 415.957,572.56 416.5,572.5 Z"/></g>
<g><path style="opacity:1" fill="#868384" d="M 519.5,566.5 C 519.56,565.957 519.893,565.624 520.5,565.5C 521.484,568.428 521.817,571.428 521.5,574.5C 515.463,574.829 509.463,574.496 503.5,573.5C 503.624,572.893 503.957,572.56 504.5,572.5C 509.64,573.488 514.974,573.821 520.5,573.5C 520.802,570.941 520.468,568.607 519.5,566.5 Z"/></g>
<g><path style="opacity:1" fill="#7a7778" d="M 566.5,572.5 C 567.043,572.56 567.376,572.893 567.5,573.5C 563.016,574.811 558.683,574.811 554.5,573.5C 558.702,573.817 562.702,573.483 566.5,572.5 Z"/></g>
<g><path style="opacity:1" fill="#747172" d="M 627.5,567.5 C 627.56,566.957 627.893,566.624 628.5,566.5C 629.48,569.086 629.813,571.753 629.5,574.5C 624.125,574.828 618.792,574.495 613.5,573.5C 613.624,572.893 613.957,572.56 614.5,572.5C 618.97,573.486 623.637,573.819 628.5,573.5C 628.795,571.265 628.461,569.265 627.5,567.5 Z"/></g>
<g><path style="opacity:1" fill="#eec451" d="M 9.5,111.5 C 9.5,269.833 9.5,428.167 9.5,586.5C 122.5,586.5 235.5,586.5 348.5,586.5C 235.335,587.5 122.001,587.833 8.5,587.5C 8.16702,428.666 8.50035,269.999 9.5,111.5 Z"/></g>
</svg>
